<svg xmlns="http://www.w3.org/2000/svg" viewBox="0 0 460.44 441.56"><defs><style>.cls-1,.cls-5{fill:#92e3a9;}.cls-2,.cls-8{fill:#fff;}.cls-2{opacity:0.7;}.cls-3,.cls-4,.cls-6{fill:none;}.cls-3,.cls-4,.cls-5,.cls-6,.cls-7,.cls-8{stroke:#263238;stroke-miterlimit:10;}.cls-4{stroke-width:2px;}.cls-6{stroke-width:0.5px;}.cls-7,.cls-9{fill:#263238;}</style></defs><g id="Background_Simple" data-name="Background Simple"><path class="cls-1" d="M437.4,314.93s51.09-57.42,34.85-157.33-99.67-136.72-155-117.49-67.81,52.7-113,71.84-131.06,6-174,70.29,11.88,170.82,81.67,237.62S359.8,444.84,437.4,314.93Z" transform="translate(-15 -35.19)"/><path class="cls-2" d="M437.4,314.93s51.09-57.42,34.85-157.33-99.67-136.72-155-117.49-67.81,52.7-113,71.84-131.06,6-174,70.29,11.88,170.82,81.67,237.62S359.8,444.84,437.4,314.93Z" transform="translate(-15 -35.19)"/></g><g id="Line"><line class="cls-3" x1="46.58" y1="441.06" x2="446.73" y2="441.06"/></g><g id="Plant"><line class="cls-4" x1="108.67" y1="289.07" x2="124.55" y2="440.86"/><line class="cls-4" x1="121.73" y1="409.72" x2="114.67" y2="402.26"/><path class="cls-5" d="M131.82,439.69a8,8,0,0,0-2.81-6c-1.81-1.62-11.35-5.63-12.25-2.27C115.77,435.08,125.53,442.26,131.82,439.69Z" transform="translate(-15 -35.19)"/><line class="cls-6" x1="116.82" y1="404.49" x2="107.74" y2="398.84"/><line class="cls-4" x1="123.5" y1="426.68" x2="116.44" y2="419.23"/><path class="cls-5" d="M133.59,456.66a8,8,0,0,0-2.81-6c-1.81-1.62-11.35-5.63-12.25-2.27C117.54,452.05,127.3,459.22,133.59,456.66Z" transform="translate(-15 -35.19)"/><line class="cls-6" x1="118.59" y1="421.46" x2="109.51" y2="415.8"/><line class="cls-4" x1="117.41" y1="368.31" x2="110.35" y2="360.85"/><path class="cls-5" d="M127.5,398.28a8,8,0,0,0-2.81-6c-1.81-1.61-11.35-5.63-12.25-2.27C111.45,393.68,121.21,400.85,127.5,398.28Z" transform="translate(-15 -35.19)"/><line class="cls-6" x1="112.5" y1="363.09" x2="103.42" y2="357.43"/><line class="cls-4" x1="119.18" y1="385.28" x2="112.12" y2="377.82"/><path class="cls-5" d="M129.27,415.25a8,8,0,0,0-2.81-6c-1.81-1.62-11.35-5.63-12.25-2.27C113.22,410.64,123,417.82,129.27,415.25Z" transform="translate(-15 -35.19)"/><line class="cls-6" x1="114.27" y1="380.06" x2="105.19" y2="374.4"/><line class="cls-4" x1="114.53" y1="340.75" x2="107.47" y2="333.29"/><path class="cls-5" d="M124.62,370.72a8,8,0,0,0-2.81-6c-1.81-1.62-11.35-5.63-12.25-2.27C108.58,366.11,118.34,373.29,124.62,370.72Z" transform="translate(-15 -35.19)"/><line class="cls-6" x1="109.62" y1="335.52" x2="100.54" y2="329.87"/><line class="cls-4" x1="111.64" y1="313.06" x2="104.59" y2="305.61"/><path class="cls-5" d="M121.73,343a8,8,0,0,0-2.81-6c-1.81-1.62-11.34-5.63-12.25-2.27C105.69,338.43,115.45,345.6,121.73,343Z" transform="translate(-15 -35.19)"/><line class="cls-6" x1="106.73" y1="307.84" x2="97.65" y2="302.18"/><line class="cls-4" x1="120.54" y1="399.68" x2="125.91" y2="390.92"/><path class="cls-5" d="M139.28,428.75a8,8,0,0,1,1.51-6.44c1.44-2,9.94-7.85,11.52-4.75C154,420.93,146,430,139.28,428.75Z" transform="translate(-15 -35.19)"/><line class="cls-6" x1="124.27" y1="393.55" x2="132.45" y2="385.74"/><line class="cls-4" x1="115.88" y1="355.02" x2="121.25" y2="346.27"/><path class="cls-5" d="M134.62,384.09a8,8,0,0,1,1.51-6.43c1.44-2,9.94-7.86,11.52-4.76C149.37,376.27,141.3,385.31,134.62,384.09Z" transform="translate(-15 -35.19)"/><line class="cls-6" x1="119.61" y1="348.9" x2="127.79" y2="341.09"/><line class="cls-4" x1="113.84" y1="335.4" x2="119.2" y2="326.65"/><path class="cls-5" d="M132.57,364.47a8,8,0,0,1,1.51-6.44c1.44-1.95,9.94-7.85,11.52-4.75C147.32,356.65,139.25,365.69,132.57,364.47Z" transform="translate(-15 -35.19)"/><line class="cls-6" x1="117.57" y1="329.28" x2="125.74" y2="321.46"/><line class="cls-4" x1="110.83" y1="306.63" x2="116.2" y2="297.88"/><path class="cls-5" d="M129.57,335.7a8,8,0,0,1,1.51-6.44c1.44-1.95,9.94-7.85,11.52-4.75C144.32,327.88,136.25,336.92,129.57,335.7Z" transform="translate(-15 -35.19)"/><line class="cls-6" x1="114.56" y1="300.51" x2="122.74" y2="292.7"/><path class="cls-5" d="M123.54,323.43a8,8,0,0,1,1.51-6.43c1.44-2,9.94-7.86,11.52-4.76C138.29,315.61,130.22,324.65,123.54,323.43Z" transform="translate(-15 -35.19)"/><line class="cls-6" x1="108.54" y1="288.24" x2="116.71" y2="280.43"/><path class="cls-5" d="M124,323.77a8,8,0,0,1-6.25-2.18c-1.8-1.63-6.77-10.71-3.52-11.95C117.78,308.28,125.92,317.26,124,323.77Z" transform="translate(-15 -35.19)"/><line class="cls-6" x1="109.01" y1="288.58" x2="102.1" y2="279.63"/><line class="cls-4" x1="149.74" y1="309.62" x2="136.61" y2="440.86"/><line class="cls-4" x1="137.68" y1="430.37" x2="132.31" y2="421.62"/><path class="cls-5" d="M149,459.44a8,8,0,0,0-1.52-6.44c-1.44-1.95-9.94-7.84-11.52-4.74C134.19,451.63,142.27,460.66,149,459.44Z" transform="translate(-15 -35.19)"/><line class="cls-6" x1="133.94" y1="424.25" x2="126.23" y2="416.84"/><line class="cls-4" x1="141.98" y1="388.96" x2="136.6" y2="380.21"/><path class="cls-5" d="M153.24,418a8,8,0,0,0-1.51-6.44c-1.44-1.95-9.95-7.84-11.52-4.74C138.49,410.22,146.56,419.25,153.24,418Z" transform="translate(-15 -35.19)"/><line class="cls-6" x1="138.24" y1="382.84" x2="130.52" y2="375.43"/><line class="cls-4" x1="140.21" y1="405.93" x2="134.84" y2="397.18"/><path class="cls-5" d="M151.48,435a8,8,0,0,0-1.51-6.44c-1.44-1.95-9.95-7.84-11.53-4.74C136.73,427.19,144.8,436.22,151.48,435Z" transform="translate(-15 -35.19)"/><line class="cls-6" x1="136.48" y1="399.81" x2="128.76" y2="392.4"/><line class="cls-4" x1="144.84" y1="361.39" x2="139.46" y2="352.64"/><path class="cls-5" d="M156.1,390.47a8,8,0,0,0-1.51-6.44c-1.44-2-10-7.85-11.52-4.75C141.35,382.65,149.42,391.68,156.1,390.47Z" transform="translate(-15 -35.19)"/><line class="cls-6" x1="141.1" y1="355.27" x2="133.38" y2="347.87"/><line class="cls-4" x1="147.71" y1="333.71" x2="142.34" y2="324.96"/><path class="cls-5" d="M159,362.78a8,8,0,0,0-1.52-6.44c-1.44-1.95-9.94-7.84-11.52-4.74C144.22,355,152.3,364,159,362.78Z" transform="translate(-15 -35.19)"/><line class="cls-6" x1="143.97" y1="327.59" x2="136.26" y2="320.18"/><line class="cls-4" x1="138.58" y1="420.3" x2="145.64" y2="412.84"/><path class="cls-5" d="M158.5,450.27a8,8,0,0,1,2.8-6c1.81-1.62,11.35-5.64,12.26-2.28C174.54,445.65,164.79,452.83,158.5,450.27Z" transform="translate(-15 -35.19)"/><line class="cls-6" x1="143.5" y1="415.07" x2="153.1" y2="409.11"/><line class="cls-4" x1="143.22" y1="375.64" x2="150.27" y2="368.18"/><path class="cls-5" d="M163.13,405.61a8,8,0,0,1,2.81-6c1.81-1.62,11.34-5.63,12.25-2.28C179.18,401,169.42,408.18,163.13,405.61Z" transform="translate(-15 -35.19)"/><line class="cls-6" x1="148.13" y1="370.42" x2="157.74" y2="364.46"/><line class="cls-4" x1="145.25" y1="356.02" x2="152.31" y2="348.56"/><path class="cls-5" d="M165.17,386a8,8,0,0,1,2.8-6c1.81-1.62,11.35-5.64,12.26-2.28C181.21,381.37,171.46,388.55,165.17,386Z" transform="translate(-15 -35.19)"/><line class="cls-6" x1="150.17" y1="350.79" x2="159.77" y2="344.83"/><line class="cls-4" x1="148.24" y1="327.25" x2="155.29" y2="319.79"/><path class="cls-5" d="M168.15,357.22a8,8,0,0,1,2.81-6c1.81-1.62,11.34-5.64,12.25-2.28C184.2,352.6,174.44,359.78,168.15,357.22Z" transform="translate(-15 -35.19)"/><line class="cls-6" x1="153.15" y1="322.03" x2="162.76" y2="316.06"/><path class="cls-5" d="M164.78,344a8,8,0,0,1,2.81-6c1.81-1.62,11.34-5.63,12.25-2.27C180.83,339.36,171.07,346.54,164.78,344Z" transform="translate(-15 -35.19)"/><line class="cls-6" x1="149.78" y1="308.78" x2="159.39" y2="302.82"/><path class="cls-5" d="M165.18,344.4a8,8,0,0,1-5.66-3.42c-1.43-2-4.42-11.87-1-12.42C162.27,328,168.39,338.42,165.18,344.4Z" transform="translate(-15 -35.19)"/><line class="cls-6" x1="150.17" y1="309.21" x2="145.25" y2="299.03"/><line class="cls-4" x1="132" y1="248.86" x2="131.02" y2="441.08"/><line class="cls-4" x1="132.15" y1="409.17" x2="125.9" y2="401.02"/><path class="cls-5" d="M142.8,438.66a8,8,0,0,0-2.17-6.24c-1.63-1.8-10.7-6.78-11.95-3.54C127.32,432.42,136.28,440.56,142.8,438.66Z" transform="translate(-15 -35.19)"/><line class="cls-6" x1="127.8" y1="403.47" x2="119.36" y2="396.9"/><line class="cls-4" x1="132.15" y1="373.71" x2="125.9" y2="365.57"/><path class="cls-5" d="M142.8,403.2a8,8,0,0,0-2.17-6.24c-1.63-1.8-10.7-6.78-11.95-3.53C127.32,397,136.28,405.1,142.8,403.2Z" transform="translate(-15 -35.19)"/><line class="cls-6" x1="127.8" y1="368.01" x2="119.36" y2="361.44"/><line class="cls-4" x1="132.15" y1="332.08" x2="125.9" y2="323.93"/><path class="cls-5" d="M142.8,361.57a8,8,0,0,0-2.17-6.24c-1.63-1.8-10.7-6.78-11.95-3.53C127.32,355.33,136.28,363.47,142.8,361.57Z" transform="translate(-15 -35.19)"/><line class="cls-6" x1="127.8" y1="326.38" x2="119.36" y2="319.81"/><line class="cls-4" x1="132.15" y1="304.37" x2="125.9" y2="296.22"/><path class="cls-5" d="M142.8,333.86a8,8,0,0,0-2.17-6.25c-1.63-1.79-10.7-6.77-11.95-3.53C127.32,327.61,136.28,335.76,142.8,333.86Z" transform="translate(-15 -35.19)"/><line class="cls-6" x1="127.8" y1="298.67" x2="119.36" y2="292.1"/><line class="cls-4" x1="132.15" y1="276.53" x2="125.9" y2="268.39"/><path class="cls-5" d="M142.8,306a8,8,0,0,0-2.17-6.25c-1.63-1.8-10.7-6.78-11.95-3.53C127.32,299.78,136.28,307.93,142.8,306Z" transform="translate(-15 -35.19)"/><line class="cls-6" x1="127.8" y1="270.83" x2="119.36" y2="264.26"/><line class="cls-4" x1="132.01" y1="420" x2="138.25" y2="411.85"/><path class="cls-5" d="M151.36,449.49a8,8,0,0,1,2.17-6.25c1.63-1.79,10.7-6.77,11.95-3.53C166.84,443.24,157.87,451.39,151.36,449.49Z" transform="translate(-15 -35.19)"/><line class="cls-6" x1="136.35" y1="414.3" x2="145.29" y2="407.37"/><line class="cls-4" x1="132.01" y1="363.6" x2="138.25" y2="355.46"/><path class="cls-5" d="M151.36,393.1a8,8,0,0,1,2.17-6.25c1.63-1.8,10.7-6.78,11.95-3.53C166.84,386.85,157.87,395,151.36,393.1Z" transform="translate(-15 -35.19)"/><line class="cls-6" x1="136.35" y1="357.9" x2="145.29" y2="350.98"/><line class="cls-4" x1="132.01" y1="335.77" x2="138.25" y2="327.62"/><path class="cls-5" d="M151.36,365.26a8,8,0,0,1,2.17-6.25c1.63-1.79,10.7-6.77,11.95-3.53C166.84,359,157.87,367.16,151.36,365.26Z" transform="translate(-15 -35.19)"/><line class="cls-6" x1="136.35" y1="330.07" x2="145.29" y2="323.14"/><line class="cls-4" x1="132.01" y1="298.98" x2="138.25" y2="290.83"/><path class="cls-5" d="M151.36,328.47a8,8,0,0,1,2.17-6.25c1.63-1.79,10.7-6.77,11.95-3.53C166.84,322.22,157.87,330.37,151.36,328.47Z" transform="translate(-15 -35.19)"/><line class="cls-6" x1="136.35" y1="293.28" x2="145.29" y2="286.35"/><line class="cls-4" x1="132.01" y1="270.06" x2="138.25" y2="261.91"/><path class="cls-5" d="M151.36,299.55a8,8,0,0,1,2.17-6.25c1.63-1.8,10.7-6.78,11.95-3.53C166.84,293.3,157.87,301.45,151.36,299.55Z" transform="translate(-15 -35.19)"/><line class="cls-6" x1="136.35" y1="264.35" x2="145.29" y2="257.43"/><path class="cls-5" d="M146.64,286.72a8,8,0,0,1,2.17-6.25c1.63-1.8,10.7-6.77,11.95-3.53C162.12,280.47,153.15,288.62,146.64,286.72Z" transform="translate(-15 -35.19)"/><line class="cls-6" x1="131.63" y1="251.53" x2="140.57" y2="244.6"/><path class="cls-5" d="M147.07,287.1a8,8,0,0,1-6-2.81c-1.62-1.82-5.62-11.36-2.26-12.26C142.48,271.05,149.65,280.82,147.07,287.1Z" transform="translate(-15 -35.19)"/><line class="cls-6" x1="132.07" y1="251.91" x2="126.12" y2="242.29"/></g><g id="Character"><polygon class="cls-7" points="386.04 441.06 380.25 374.43 243.4 374.43 235.85 441.06 386.04 441.06"/><path class="cls-5" d="M317.22,207.67s-40,11-57.5,24.24-29.6,26.78-26.78,52.43,21.14,95.83,21.14,95.83-2.54,28.47-2.54,30.16-.28,6.48,5.92,6.76,80.61,3.39,97.24,3.67,38.62-1.41,41.15-3.38a11.76,11.76,0,0,0,4.23-8.46c.28-3.38,3.1-44.82,3.1-44.82l.28-18.6s18.33-60.88,19.45-80.61-6.2-26.21-14.37-32.41-33.61-16.7-47.35-20.86S317.22,207.67,317.22,207.67Z" transform="translate(-15 -35.19)"/><path class="cls-3" d="M327.09,302.27c-2,27.45-5.66,78-5.34,86.71.45,12-4.44,15.55-4.44,20" transform="translate(-15 -35.19)"/><path class="cls-3" d="M328.42,284.56s-.36,4.67-.91,12.06" transform="translate(-15 -35.19)"/><polygon class="cls-7" points="331.28 284.63 333.84 314.83 348.17 313.81 331.28 284.63"/><path class="cls-7" d="M332.7,372.48s35-5.5,37.63-4.92,20.55,9.26,23.16,9.84a24.34,24.34,0,0,1,4.92,1.74l3.93,3.29L401,372.48s-5.21-6.37-16.79-11-17.37-2-20-1.15S332.7,372.48,332.7,372.48Z" transform="translate(-15 -35.19)"/><path class="cls-8" d="M278.88,346.07l91-.29s29.32-2.81,30.44-3.1,12.69,2.82,13.82,3.67,1.12,3.38.56,5.92l-.56,2.53a53.38,53.38,0,0,1,.84,6.49c0,2-2.25,2.53-2.54,3.38s1.7,3.94-.56,5.92l-2.25,2s-.29,5.36-1.41,6.77-4.51,3.94-5.92,3.1-.85-3.1-.85-4.51-.56-2.82-2.25-2.82-2,1.41-10.71-.85-18.32-9.86-19.17-10.15-77.23,20.3-99.78,23.12-24.52-.28-25.37-4-2.25-12.4-2.25-12.4l-4-17.19Z" transform="translate(-15 -35.19)"/><path class="cls-5" d="M338.05,240.71s4.71-5,7.68-2.73,5.69,14.11,9.4,13.12,11.14-24,11.14-33.16-6.44-14.6-7.92-15.1-39.35-1-43.81.75-6.18,17.32-7.91,26.72,2.22,11.63,4.7,10.4,12.12-5.2,14.35-5.2S338.05,240.71,338.05,240.71Z" transform="translate(-15 -35.19)"/><path class="cls-8" d="M363.4,188.54s-3.55,17.54-4.93,21.87-11.43,17.54-14,20.3-10.05,16.35-12,16.75S325,229.33,325,229.33s-7.1-12.22-8.48-15.37S313,201.55,313,201.55s11.62,10,24,7.88,18.71-14.58,18.71-14.58Z" transform="translate(-15 -35.19)"/><path class="cls-8" d="M315.29,153.6s-3.47-3.72-5.45,2,2,15.83,2,15.83Z" transform="translate(-15 -35.19)"/><path class="cls-8" d="M315.91,142s-5.71,40.59-5.71,43-1.58,10.24.79,15.37,9.45,11.42,15.17,12.21,16.94-.39,23.25-5.32S363,191.7,363,191.7s7.89-1.19,13-3.35,9.06-7.1,8.87-12.22a17.18,17.18,0,0,0-3.35-9.06l-3-5.52,7.88-14.78s-4.53-8.47-19.11-16.55-27.59-10.64-33.69-10.64-13.8,2.56-16,7.49S315.91,142,315.91,142Z" transform="translate(-15 -35.19)"/><path class="cls-7" d="M334.63,122.14s11.23,18.52,19.71,17.74,11-4.73,11-4.73l5.71,7.68s-6.1,2.56-4.92,5.72,6.5,10.24,6.5,10.24l-4.34,18.52s3.35.59,3.95-.59,3.54-8.47,3.54-8.47a10.22,10.22,0,0,1,2.56-1.18,7.52,7.52,0,0,1,3.16,0s2.16-7.29,3-7.49,8.67-2.37,11.63-10.05-1.58-19.9-11.83-29.55-31.92-12.22-33.1-14,5.52.78,4.14-3.16-10.05-9.06-21.08-3.54-9.46,11.62-8.28,13.59l1.18,2s-9.26-3.15-15.76.79-9.65,11.82-6.7,12.61,6.7-1,6.7-1-3.94,6.5-2.76,7.88,7.29,6.89,7.29,6.89,2.37-13.79,7.29-15.76S334.63,122.14,334.63,122.14Z" transform="translate(-15 -35.19)"/><polyline class="cls-3" points="316.08 113.55 317.86 119.26 307.81 138.18 318.45 142.32"/><path class="cls-7" d="M329.11,146.57s-4.72-3.74-8.67-2.75-1.57,1.57,1.19,2.56S329.9,149.92,329.11,146.57Z" transform="translate(-15 -35.19)"/><path class="cls-7" d="M343.7,145.79s-4.54,1.18-2.37,2.16,8.67-1,11.23,0,5.91,4.34,5.72,2.76A8,8,0,0,0,353,144.8C349.41,143.62,343.7,145.79,343.7,145.79Z" transform="translate(-15 -35.19)"/><path class="cls-9" d="M326.51,155.32c-.35,1.43-1.31,2.42-2.16,2.21s-1.25-1.52-.91-2.95,1.32-2.42,2.16-2.22S326.85,153.89,326.51,155.32Z" transform="translate(-15 -35.19)"/><path class="cls-9" d="M348,160.94c-.35,1.42-1.32,2.41-2.16,2.21s-1.25-1.53-.91-3,1.31-2.42,2.16-2.21S348.33,159.51,348,160.94Z" transform="translate(-15 -35.19)"/><line class="cls-3" x1="301.7" y1="144.68" x2="309.78" y2="150"/><path class="cls-5" d="M399.8,227.68s27.9,10.72,33.26,26.78-1.41,36.36-4.23,44.82-20.29,41.43-23.11,49.32-7.05,17.48-7.05,17.48S394.73,342.4,384,327.75s-13.25-27.91-13.25-27.91,19.45-34.39,24.52-45.1" transform="translate(-15 -35.19)"/><path class="cls-5" d="M373.73,293.88s5.71-2.85,7.61-1.9,26.33,14,29.5,28.87a50.55,50.55,0,0,1-4.44,33c-2.86,5.4-8.25,15.86-12.37,17.13s-7.62-32.67-16.18-50.43S373.73,293.88,373.73,293.88Z" transform="translate(-15 -35.19)"/><path class="cls-3" d="M383.17,277.57s5.07-17.19,7.05-23.95" transform="translate(-15 -35.19)"/><path class="cls-8" d="M332.27,216.52s-7.88-11-14-18.32-12.42-11.63-14.58-11-3,2.76-1.58,5.32,7.88,8.28,9.06,9.86,3,7.29,3,7.29-5.71.39-6.7,1.57a26.41,26.41,0,0,0-2.36,4.34,8.37,8.37,0,0,0-3,2.56,7,7,0,0,0-1.18,2.76c-.2.79-3,2.17-2.76,5.71s3.55,8.67,4.73,11,9.85,12.8,11.43,14.58,10.64,17.53,13,22.85,25.22,67,31.92,76.26,19.11,18.12,25.81,21.28,11.43-2.17,14.58-8.87,5.91-20.1-.19-35.47-18.13-28.57-27.39-36.45-26.6-27.58-28.57-31.13S339,249.23,339,249.23s5.12-15,5.51-18.52-1.57-9.85-1-12.61,2.95-8.28,3.94-10.64,4.33-6.31,2.56-8.08-9.06.39-11.62,4.53A120.38,120.38,0,0,0,332.27,216.52Z" transform="translate(-15 -35.19)"/><path class="cls-5" d="M271.37,259.19c.59-3.13,1-5.29,1-5.29" transform="translate(-15 -35.19)"/><path class="cls-5" d="M269.58,226.84s-14.94,2-30.44,18.6-8.74,56.09-7.33,64.27S235.48,343,235.48,343l39.74-13.25s-6.48-44.25-7.05-48.2c-.28-2,.8-9,1.94-15.5" transform="translate(-15 -35.19)"/><path class="cls-5" d="M231.53,334.23s3.95,21.14,5.92,22.26,32.69-7.32,36.08-7.89,5.35.28,5.35-2.53-2.82-16.07-4.51-18.32-38.33,2.53-41.43,3.38S231.53,334.23,231.53,334.23Z" transform="translate(-15 -35.19)"/><path class="cls-3" d="M254,317.89a159.92,159.92,0,0,1,20.33,9.86s-9.58-18-13.53-21.71" transform="translate(-15 -35.19)"/><path class="cls-3" d="M248.72,315.91c1.13.39,2.25.8,3.35,1.21" transform="translate(-15 -35.19)"/><path class="cls-3" d="M341.16,408.18c7.29-2.6,14-5.46,18-8.28" transform="translate(-15 -35.19)"/><path class="cls-3" d="M306.79,418.22s15.57-3.69,30.35-8.65" transform="translate(-15 -35.19)"/><path class="cls-3" d="M372.28,398.73c-7.66,3.82-19.79,9.4-29.7,11.88" transform="translate(-15 -35.19)"/><path class="cls-3" d="M379.79,394.83s-1.57.87-4.18,2.21" transform="translate(-15 -35.19)"/></g><g id="Bubble"><path class="cls-7" d="M280.17,147.3" transform="translate(-15 -35.19)"/><path class="cls-8" d="M284,141.12" transform="translate(-15 -35.19)"/></g></svg>