<svg id="Слой_2" data-name="Слой 2" xmlns="http://www.w3.org/2000/svg" viewBox="0 0 3077.64 1584.78"><defs><style>.cls-1{fill:#ebf2f9;}.cls-2{fill:#adcbf9;}.cls-3{fill:#acd29a;}.cls-4,.cls-7{fill:#d86713;}.cls-5{fill:#ee9849;}.cls-6{fill:#f1a34f;}.cls-7{opacity:0.4;}.cls-8{fill:#699dee;}.cls-9{fill:#e9f3fe;}.cls-10{fill:#afcdfb;}.cls-11{fill:#fca56b;}.cls-12{fill:#e58638;}.cls-13{fill:#163560;}.cls-14{fill:#1c468a;}.cls-15{fill:#ffb27d;}.cls-16{fill:#588fe0;}.cls-17{fill:#b74b42;}.cls-18{fill:#ffc08d;}.cls-19{fill:#ffe6d2;}.cls-20{fill:#4a75cb;}.cls-21{fill:#2b478b;}.cls-22{fill:#739af0;}.cls-23{fill:#e2915a;}.cls-24{fill:#80bdcc;}.cls-25{fill:#5f9aa8;}.cls-26{fill:#b84c42;}.cls-27{fill:#ffb93e;}.cls-28{fill:#fff;}.cls-29{fill:#cae0ff;}.cls-30{fill:#283250;}</style></defs><path class="cls-1" d="M2738.89,1793.26S3055,1824,3149.67,1635.16C3287.3,1360.65,3014,1145,2811.21,1184.33c-441.84,85.83-335.44-861-1044.53-667.77-199.39,54.34-738.1-268.44-888.35,249.11C842.6,888.74,716,902.29,532.26,980.39,172.63,1133.22,337.07,1795.84,594,1798.44S2738.89,1793.26,2738.89,1793.26Z" transform="translate(-261.75 -214.59)"/><path class="cls-2" d="M1760.32,766.71l-31.71-.72c10.19,13.2,12.48,25.37,6.14,35.66-6.35,10.5-21.53,19.13-44.19,25.68a409.2,409.2,0,0,0-94.2-432.74,410.29,410.29,0,0,0-449.07-87.86c-6,2.6-12.06,5.31-17.88,8.11l-.05,0c-17.62-5.37-34.77-9.78-51.33-13.13-83.56-17-142.86-5.24-166.95,33-22.92,36.36-10.44,91.11,35,155l0,0c-6.13,11.33-11.64,23-16.74,35-3.84,9-7.27,18.09-10.39,27.34-85.47,5.1-131.22,20.14-147.85,47.38-19.34,31.71,7.07,74.27,91.6,115.65,11.64,5.72,24.12,11.34,37.22,17a400.93,400.93,0,0,0,29.42,111.46,409.68,409.68,0,0,0,753.09,3.85c41.69-8.63,69.14-22.15,80.06-40C1770.1,795,1769.16,781.27,1760.32,766.71Zm-97.84,67.07c-27.76,5-62.38,7.9-102.83,8.32-62.76.76-134.83-4.2-210.79-14.21q9.59-20.86,18.76-42.83a581.94,581.94,0,0,0,68.27,18.56c25,5.07,47.8,7.58,68.16,7.58,47.72,0,81.91-13.78,98.79-40.58a69.77,69.77,0,0,0,6.79-14h-24.32c-.41.75-.83,1.48-1.28,2.19-12.55,19.91-40.57,30.19-79.93,30.19-18.82,0-40.25-2.35-63.8-7.14a556.45,556.45,0,0,1-64.24-17.37q8.78-22,17-44.76c14.83-40.88,27.52-81.41,37.79-120.33,46.8,6.9,97,10.36,150.4,10.36q49.85,0,103.28-4a388.23,388.23,0,0,1,8,78.47A383.27,383.27,0,0,1,1662.48,833.78Zm-506.8,203c-11.83-4.3-17.84-21.28-20.79-34.77-4.67-21.31-5.51-51.26-2.44-86.59,1.55-17.87,4-36.86,7.41-56.73a1053.14,1053.14,0,0,1,143.28,49.57c-10.53,18.16-21.18,35-31.83,50.27-20.29,29.09-40.14,51.53-57.39,64.89C1183,1031.92,1167.51,1041.1,1155.68,1036.82Zm138.17-147.53a1076.16,1076.16,0,0,0-150.09-52q2.68-13.83,5.89-28.14,21.19,4.83,43,9.32c42.47,8.69,84.83,16.06,126.31,22Q1306.61,866,1293.85,889.29ZM1202,803.11q-24.6-5.07-48.47-10.57c7.48-31.13,16.67-63.59,27.4-96.66,55.78,34.28,112.5,62.18,166.21,82Q1337,802,1326.4,824.8C1285.6,819,1243.86,811.69,1202,803.11ZM1065.76,382.86a255.45,255.45,0,0,0,15.07,26.53c28.2,43.58,65.44,75.17,91.72,94a450,450,0,0,0,48.26,30c-15.58,33.94-30.42,70.17-44.06,107.78q-3.81,10.53-7.43,21c-81.49-53-150.48-113.9-195.73-172.8l0,0a387.48,387.48,0,0,1,38.87-54.77c6-7.07,12.27-13.93,18.82-20.59l2.7-2.7A390,390,0,0,1,1065.76,382.86Zm348.42-58.78c11.83,4.29,17.83,21.28,20.79,34.76,4.67,21.32,5.51,51.27,2.44,86.6-3.36,38.67-11.11,82.59-22.63,129.36q-20.88-3.59-40.75-8.14c-45.75-10.52-87.45-24.91-124.69-43,22.22-46.34,45.72-87.67,69.21-121.34,20.29-29.09,40.14-51.53,57.39-64.9,9-7,21.11-14.44,31.72-14.44A19.12,19.12,0,0,1,1414.18,324.08Zm-46.5,263.38q20.33,4.71,41.71,8.42c-10,37.63-22.33,76.83-36.68,116.41q-8.3,22.88-17.15,45c-53.92-19.8-111.15-48.12-167.42-83.09q4.36-12.75,9-25.58c13.33-36.77,27.81-72.16,43-105.3C1278.38,561.85,1321,576.63,1367.68,587.46Zm211.83-176.13a384.28,384.28,0,0,1,100,173c-88.93,6.5-170.42,4.46-243.26-6.09,11.56-47.22,19.34-91.65,22.76-130.89,3.77-43.34,3.31-94.67-14.26-123.55q6.11,2.34,12.16,4.9A383.24,383.24,0,0,1,1579.51,411.33Zm-272.72-113a386,386,0,0,1,78.7,8c-30.3,13.19-61.24,49.91-84.73,83.57-24,34.46-48,76.63-70.71,123.84a427.71,427.71,0,0,1-43.36-26.93c-64.47-45.74-92.89-95.07-103.22-117.34a386,386,0,0,1,49.83-30.07h0q10.62-5.37,21.63-10.06l1.6-.69.37-.15c1.56-.67,3.13-1.31,4.7-1.94l1.27-.51A383.24,383.24,0,0,1,1306.79,298.31Zm-376.9,48.28c12.54-19.91,40.57-30.18,79.93-30.18,18.82,0,40.25,2.35,63.8,7.13q13.41,2.71,27.36,6.39h0a402.6,402.6,0,0,0-83.88,64.65c-5.3,5.2-10.4,10.61-15.39,16.22-6.24,6.86-12.16,14-17.88,21.32a413.25,413.25,0,0,0-25.37,36.28l0,0C923.68,416.81,913.23,373,929.89,346.59ZM951.2,534c3.43-7.9,7-15.7,10.81-23.29v0c47.66,59.56,117.89,120.45,200,173.26-11.64,35.42-21.56,70.23-29.58,103.58-59.7-14.44-115-30.79-163.52-48.28-10.19-3.64-20.07-7.39-29.53-11.13-5.62-2.18-11.13-4.47-16.54-6.76-.83-8.32-1.45-16.74-1.66-25.16-.1-4.06-.21-8-.21-12.06,0-4.68.11-9.46.21-14.14a390,390,0,0,1,17.68-102.31c1.76-5.62,3.64-11.13,5.72-16.64C946.63,545.35,948.81,539.64,951.2,534ZM881.64,702.87c-73.72-36-107.4-70.7-92.33-95.34,12.17-20,56.46-33.48,124.25-38.47a398.36,398.36,0,0,0-15.39,86.51c-.62,8.73-.93,17.46-1,26.3v2.29c0,8.84.32,17.68.84,26.41C892.35,708.07,886.94,705.47,881.64,702.87Zm55.94,44.19c10,3.75,20.17,7.49,30.67,11.13,48.27,16.73,102.39,32.27,160.27,46.07q-3.15,14.06-5.82,27.72-7.1-1.72-14.2-3.35c-80-18.22-140.07-21.92-167.91-22.55a376.59,376.59,0,0,1-15.18-63.7ZM951.2,834.3c-.87-2.07-1.71-4.14-2.55-6.21,29.69,1.2,84.73,5.69,155,21.69q7.55,1.72,15.08,3.57c-3.62,21.11-6.29,41.28-7.94,60.23-3.12,35.91-3.34,77.3,6.67,106.87A387.74,387.74,0,0,1,951.2,834.3Zm505.73,205.35A387.09,387.09,0,0,1,1189.8,1052c28.54-15,57.22-49.31,79.3-81,11.39-16.32,22.77-34.39,34-53.89a1089.5,1089.5,0,0,1,185.58,107.37Q1473.21,1032.74,1456.93,1039.65ZM1579.51,957a383,383,0,0,1-70.21,55.62A1112.48,1112.48,0,0,0,1313.76,898.1c9.41-17.24,18.68-35.45,27.73-54.46,62.64,8.3,122.85,13.28,177.82,14.57,14.35.42,28.28.42,41.8.31,35-.41,66.23-2.49,93-6.24A383.1,383.1,0,0,1,1579.51,957Z" transform="translate(-261.75 -214.59)"/><path class="cls-3" d="M2587.52,1687.3c-8.74-33.88-67.8-7.64-116.44,20.8-2.26-3.59-4.62-7.14-7-10.65,34.82-21.6,83.72-57.52,65.1-79.39-18.38-21.59-54.31,27.31-76.79,63.37-60.21-78.14-149.5-133.76-149.5-133.76s372.61-309.59,94.18-472.92-490,411.36-490,411.36S1716.82,1309.93,1535.15,1375c-186.56,66.82-70,190.66-232,224.15-19.07-73-54.33-176-102.55-182.08-63.67-8-36.88,71.72,59.88,188.14-18.76,1.69-40.12,2.55-64.54,2.48C936.1,1606.91,1002.78,1794,1002.78,1794l1502.4,3.46c-2-18.41-7.4-36.51-15.11-54C2541.53,1735.35,2595.75,1719.21,2587.52,1687.3Z" transform="translate(-261.75 -214.59)"/><path class="cls-4" d="M1810.19,968.34l-65.51,779s-6.87,47.22,28.26,47.3c57.75.14,287.46,0,287.46,0s-43.47-9.83-42.94-32C2018.08,1736.65,2094,961,2094,961Z" transform="translate(-261.75 -214.59)"/><path class="cls-5" d="M2079,1780.54c-11.36,0-230.76.72-287,0-24.51-.31-28.8-21.8-29-35.7a69.47,69.47,0,0,1,.75-11.6l1.7-20.25,4.34-51.61,3.84-45.59,4.93-58.59,4.15-49.45,46.55-553.55,283.85-7.37s-32,324.62-54.62,560.92c-2.53,26.33-4.93,51.57-7.16,75.14q-1.08,11.28-2.08,22c-2.1,22.36-4,42.89-5.69,61q-1.32,14.34-2.42,26.57c-2.89,31.86-4.58,52.21-4.61,56.08a33,33,0,0,0,.56,6.31C2041.77,1779.73,2074.77,1780.54,2079,1780.54Z" transform="translate(-261.75 -214.59)"/><polygon class="cls-6" points="859.12 329.83 1018.71 970.87 1040.56 1058.67 1114.89 1357.24 2495.81 1357.24 2221.84 329.83 859.12 329.83"/><polygon class="cls-5" points="859.11 329.83 837 337.2 1085.48 1379.55 1114.89 1357.25 859.11 329.83"/><polygon class="cls-4" points="1085.48 1379.55 2457.91 1379.55 2495.8 1357.25 1114.89 1357.25 1085.48 1379.55"/><rect class="cls-6" x="1567.44" y="1566.26" width="297.15" height="14.12"/><polygon class="cls-4" points="1789.05 1379.54 1787.51 1390.34 1508.06 1446.79 1511.89 1401.2 1513.72 1379.54 1789.05 1379.54"/><path class="cls-7" d="M2079,1780.54c-11.36,0-230.76.72-287,0-24.51-.31-28.8-21.8-29-35.7l278.14-52.33c-2.89,31.86-4.58,52.21-4.61,56.08a33,33,0,0,0,.56,6.31C2041.77,1779.73,2074.77,1780.54,2079,1780.54Z" transform="translate(-261.75 -214.59)"/><polygon class="cls-7" points="1721.51 1149.26 1114.89 1357.25 1040.56 1058.67 1721.51 1149.26"/><polygon class="cls-8" points="859.11 329.83 2221.84 329.83 2442.95 1155.55 1064.67 1155.55 859.11 329.83"/><path class="cls-4" d="M2103.71,1474.52c-3.94-20.25-23.54-36.67-43.79-36.67s-33.48,16.42-29.54,36.67,23.54,36.67,43.79,36.67S2107.65,1494.77,2103.71,1474.52Z" transform="translate(-261.75 -214.59)"/><polygon class="cls-9" points="2378.68 1119.77 1102.75 1119.77 958.25 544.14 947.18 500 937.72 462.35 915.56 374.06 2173.1 374.06 2197.43 462.35 2207.82 500 2219.98 544.14 2378.68 1119.77"/><polygon class="cls-10" points="2197.43 462.35 937.72 462.35 915.56 374.06 2173.1 374.06 2197.43 462.35"/><path class="cls-9" d="M1237.62,617.51c-6.09,0-9.8,5-8.28,11s7.69,11,13.79,11,9.8-4.94,8.28-11S1243.72,617.51,1237.62,617.51Z" transform="translate(-261.75 -214.59)"/><path class="cls-9" d="M1274.29,617.51c-6.09,0-9.8,5-8.28,11s7.69,11,13.79,11,9.8-4.94,8.28-11S1280.39,617.51,1274.29,617.51Z" transform="translate(-261.75 -214.59)"/><path class="cls-9" d="M1327.57,628.55c-1.52-6.09-7.69-11-13.79-11s-9.8,5-8.28,11,7.69,11,13.78,11S1329.09,634.65,1327.57,628.55Z" transform="translate(-261.75 -214.59)"/><path class="cls-11" d="M693.43,761.68s3.91-12.28-2.22-23.34,3.77-18.73,1.27-22.07-18.79-3-24.36,13.06S672,763.49,672,763.49Z" transform="translate(-261.75 -214.59)"/><path class="cls-12" d="M625,850a19.64,19.64,0,0,0,25.09-15.93l16.23-70.6s3.39-5.47,15.09-5c12.74.52,16.18,6.83,16.18,6.83s7.88,124.28-28.92,141.82S590.26,839.65,625,850Z" transform="translate(-261.75 -214.59)"/><path class="cls-13" d="M701.32,1793.89H597.69c-7.37-6.67-9.8-45.91-9.8-45.91s32.13-29,42.63-6c10,21.77,37.56,33.35,54,36.22C698.74,1780.63,701,1791,701.32,1793.89Z" transform="translate(-261.75 -214.59)"/><path class="cls-13" d="M575.79,1793.89H472.16c-7.37-6.67-9.81-45.91-9.81-45.91s32.13-29,42.63-6c10,21.77,37.56,33.35,54,36.22C573.2,1780.63,575.45,1791,575.79,1793.89Z" transform="translate(-261.75 -214.59)"/><path class="cls-13" d="M650.31,1251.38s-14.74,94.28-69.73,261.64-62.49,239.83-62.49,239.83l-59-1.65s-.5-182.91,24.84-267.06,5.47-303.41,5.47-303.41Z" transform="translate(-261.75 -214.59)"/><path class="cls-14" d="M679,1185.9s2.09,142.07-22.49,316.51-16.25,248.48-16.25,248.48l-58.87,2s-35.18-174.5-25.1-261.81-48.18-299.6-48.18-299.6Z" transform="translate(-261.75 -214.59)"/><path class="cls-15" d="M565,853.43,592.81,874l40.13-8.45c-.55-3.66-3.2-18.83-5.61-32.57-.15-.81-.3-1.62-.43-2.41l-3.85-21.73-37.48-18.68-14-7c0,.25,1.08,13,1.23,14.83C575.44,831,565,853.43,565,853.43Z" transform="translate(-261.75 -214.59)"/><path class="cls-5" d="M630.13,843.05c-.88-.37-54.59-16.22-60.42-14.29S560.42,842,560.42,842l87.85,19.86S641.36,847.78,630.13,843.05Z" transform="translate(-261.75 -214.59)"/><path class="cls-5" d="M485.5,1203.44c9.11,41.53,160.63,46.46,199.68,8.76,4.45-4.3,4.66-24.29,3-51.25-3.28-52.67-13.8-131.89-14.21-172.37-.2-19.55-2.89-39.54-6.47-57.69a468.6,468.6,0,0,0-19.22-69.06s-74-23.92-87.85-19.85C493.71,861.58,476.4,1161.9,485.5,1203.44Z" transform="translate(-261.75 -214.59)"/><path class="cls-12" d="M688.17,1161c-3.28-52.67-13.8-131.89-14.21-172.37-.2-19.55-2.89-39.54-6.47-57.69L623,923S579.45,1100.82,688.17,1161Z" transform="translate(-261.75 -214.59)"/><path class="cls-11" d="M575.63,798.61c8.23,15.75,38.9,29.37,51.7,34.37-.15-.81-.3-1.62-.43-2.41l-3.85-21.73-37.48-18.68C577.28,790,572.24,792.13,575.63,798.61Z" transform="translate(-261.75 -214.59)"/><path class="cls-15" d="M641.26,806.65s-67.62,21.09-80.11-21.22-29.62-68.09,13-83.35,55.84-1.6,63.44,11.51S658.53,800.07,641.26,806.65Z" transform="translate(-261.75 -214.59)"/><path class="cls-13" d="M631.58,713.89s-4.31,49.24-14.49,47.1-19.42-3.72-17.93,11.12,15.61,32-15.77,34.61-76.49-78.31-67.87-93.63C540.39,668.88,667.54,660,631.58,713.89Z" transform="translate(-261.75 -214.59)"/><path class="cls-2" d="M726.69,703.32l-65.52,17.5,2,27,66.8-.46c5.29-.4,8.83-10.58,7.92-22.74S732,702.92,726.69,703.32Z" transform="translate(-261.75 -214.59)"/><path class="cls-8" d="M668.06,733.89c-.56-7.46-3.65-13.31-6.89-13.07s-5.42,6.49-4.86,13.95,3.65,13.31,6.89,13.07S668.62,741.35,668.06,733.89Z" transform="translate(-261.75 -214.59)"/><path class="cls-8" d="M692.35,733l-20.27.38c-.63,4.26.46,6.09.46,6.09l20.2,1.35Z" transform="translate(-261.75 -214.59)"/><path class="cls-2" d="M764.84,702.37l-75.22,20.09,2.33,31,76.69-.53c6.07-.46,10.15-12.15,9.1-26.11S770.91,701.91,764.84,702.37Z" transform="translate(-261.75 -214.59)"/><path class="cls-8" d="M697.53,737.46c-.64-8.56-4.18-15.27-7.91-15s-6.22,7.45-5.57,16,4.18,15.27,7.9,15S698.17,746,697.53,737.46Z" transform="translate(-261.75 -214.59)"/><path class="cls-15" d="M709.21,761.57s-7.1-10.76-4.21-23.07-8.72-17-7.22-20.88,17.28-8,27,5.94,5.59,33.92,5.59,33.92Z" transform="translate(-261.75 -214.59)"/><path class="cls-5" d="M616.7,864.78s39.28-7.16,75.57-6.63A19.65,19.65,0,0,0,712.09,836l-6.34-71s4.54-7.54,15.93-10.26c12.4-3,16.38,3.73,16.38,3.73s42.41,115.91,11.77,142.79S603.15,945,603.15,945Z" transform="translate(-261.75 -214.59)"/><path class="cls-5" d="M3113.17,383.15c-4,93.35-25.75,207.62-94.79,299.55q-3.81,5.06-7.65,10-11.61,15-23.62,29.17a26.08,26.08,0,0,1-35.55,3.92L2645.11,495.67a23.81,23.81,0,0,1-7.68-9.84,24.15,24.15,0,0,1-1.84-8,23.78,23.78,0,0,1,3.9-14.32q10.78-16.37,22.59-32.59,3.71-5.08,7.51-10.14c69-91.93,172.72-144.64,261.24-174.56A838.54,838.54,0,0,1,3051,215.47a54.76,54.76,0,0,1,14.92-.63,48.1,48.1,0,0,1,19.85,6.41c12.72,7.52,21.56,20.94,23.38,37.89A835.64,835.64,0,0,1,3113.17,383.15Z" transform="translate(-261.75 -214.59)"/><path class="cls-16" d="M2661.87,431.18q-13.41,18.42-25.5,37a18.33,18.33,0,0,0,4.39,24.63l314.2,236a21.33,21.33,0,0,0,29-3.19q13.5-15.76,26.55-32.61Z" transform="translate(-261.75 -214.59)"/><path class="cls-17" d="M2934.21,524.28a93,93,0,0,1-74.12-148.77h0a92.86,92.86,0,1,1,74.12,148.77Zm.34-164.32a71.58,71.58,0,0,0-10.19.73,70.83,70.83,0,0,0-47,27.79h0A71.3,71.3,0,1,0,2934.55,360Z" transform="translate(-261.75 -214.59)"/><path class="cls-18" d="M3092.82,242.78a52.64,52.64,0,0,0-7-21.53,48.1,48.1,0,0,0-19.85-6.41c.06.41.11.82.15,1.22a836.88,836.88,0,0,1,4,124c-4,93.35-25.76,207.61-94.8,299.54-2.53,3.38-5.09,6.72-7.65,10q-2.57,3.3-5.15,6.57l30,22.56,1.89-2.41c2.57-3.32,5.11-6.66,7.65-10,69-91.94,90.75-206.2,94.8-299.55A836.82,836.82,0,0,0,3092.82,242.78Z" transform="translate(-261.75 -214.59)"/><path class="cls-16" d="M3109.18,259.14c-3.21-30-28.45-48.94-58.15-43.67a837.84,837.84,0,0,0-120.21,30.74l182.36,136.94A836.82,836.82,0,0,0,3109.18,259.14Z" transform="translate(-261.75 -214.59)"/><path class="cls-17" d="M2687.38,557c-29.88-19.85-76.91-1.59-105.05,40.77s3.16,112.64,3.16,112.64,76.91,1.59,105.05-40.77S2717.26,576.88,2687.38,557Z" transform="translate(-261.75 -214.59)"/><path class="cls-17" d="M2855.35,680.42c-29.88-19.85-76.91-1.59-105,40.77s3.16,112.64,3.16,112.64,76.91,1.59,105-40.77S2885.23,700.26,2855.35,680.42Z" transform="translate(-261.75 -214.59)"/><path class="cls-5" d="M2655.62,604.54c-20.62-13.7-53.08-1.1-72.5,28.14s2.17,77.74,2.17,77.74,53.09,1.1,72.51-28.14S2676.24,618.24,2655.62,604.54Z" transform="translate(-261.75 -214.59)"/><path class="cls-5" d="M2823.94,727.78c-20.62-13.7-53.08-1.1-72.5,28.14s2.17,77.74,2.17,77.74,53.09,1.1,72.51-28.14S2844.57,741.48,2823.94,727.78Z" transform="translate(-261.75 -214.59)"/><path class="cls-19" d="M2892.72,477.56l96.36-17a62.84,62.84,0,0,1-96.36,17Z" transform="translate(-261.75 -214.59)"/><path class="cls-19" d="M2996.83,428.11l-122,23.11a62.85,62.85,0,1,1,122-23.11Z" transform="translate(-261.75 -214.59)"/><path class="cls-15" d="M1053,1307s20.43,5.25,33.42,1.34,35.35,2.51,38.95,7.25,2.28,6.62-4.15,8.25-29.18,11.34-44.14,5.72-34.47-5.82-34.47-5.82Z" transform="translate(-261.75 -214.59)"/><path class="cls-20" d="M876.36,1129.46s22.95,163.15,61,177.76c18.76,7.21,101.65,23.55,126.17,25.2,0,0,6-4.88,4.54-24.71,0,0-86.84-31.88-99.18-49.22-18.36-25.8,11.4-105.42-11.64-129.65S895.37,1094.19,876.36,1129.46Z" transform="translate(-261.75 -214.59)"/><path class="cls-21" d="M911,1757.39v-35.57h56a2.76,2.76,0,0,0,2.75-2.75v-5.7a2.76,2.76,0,0,0-2.75-2.75H911V1508.13a10.36,10.36,0,0,0-10.33-10.33H889.62a10.36,10.36,0,0,0-10.33,10.33v202.49h-56a2.76,2.76,0,0,0-2.75,2.75v5.7a2.76,2.76,0,0,0,2.75,2.75h56v35.57c-40.52,3.06-73,17.65-82.09,36.5H993.13C984,1775,951.55,1760.45,911,1757.39Z" transform="translate(-261.75 -214.59)"/><path class="cls-13" d="M884.1,1473.18a285.48,285.48,0,0,0,22.42,32.08c24.67,31.15,51.53,56.83,56.2,81.1a110,110,0,0,0,4.34,15.54c2,5.56,4.37,11.4,7.16,17.45,10.47,22.74,26.12,48.22,41.76,71.38,27,40,52.43,73.46,52.43,73.46l46.6-2c-1.87-4.67-22.19-60-49.38-127.52l-34.11-84.74-4.51-11.21c-3.46-8.61-6.87-17.08-10.2-25.33l-45.86-114s-102-38.65-112.64-13.6C849.57,1406.48,856.69,1426.71,884.1,1473.18Z" transform="translate(-261.75 -214.59)"/><path class="cls-13" d="M1069.86,1754.81s2.39,38.45,9.83,39c1,.08,37.73.08,37.73.08h46.91s-.31-11.58-14-14-36.66-12-45-30.14C1096.61,1730.71,1069.86,1754.81,1069.86,1754.81Z" transform="translate(-261.75 -214.59)"/><path class="cls-13" d="M962,1645.86s-32.41,20.83-29.27,27.59c.42.9,18.33,33,18.33,33l23.11,40.82s9.71-5.77,5.12-18.91-7.38-37.87,4.4-54C996,1657.46,962,1645.86,962,1645.86Z" transform="translate(-261.75 -214.59)"/><path class="cls-14" d="M1005.67,1381s128.22,79.87,142.52,133.48-170.37,168-170.37,168-20.26-17.87-23.83-31c0,0,83.47-100,101.58-122.42,11.12-13.77-164.43-47.66-185.87-81s-13.77-61.43-13.77-61.43Z" transform="translate(-261.75 -214.59)"/><rect class="cls-5" x="492.82" y="1268.94" width="281.19" height="71.49" rx="9.53"/><path class="cls-15" d="M966.1,1119.17c-30.68,7.94-81.55-20.49-81.55-20.49s19.75-13.27,27.07-42.43c.37-1.47.71-3,1-4.52l15.76-3.34,23.44,21a200.06,200.06,0,0,1-3.47,23.7c-.51,2.62-1.09,5.42-1.76,8.41A72.25,72.25,0,0,1,966.1,1119.17Z" transform="translate(-261.75 -214.59)"/><path class="cls-22" d="M1009.68,1376.82a7.76,7.76,0,0,1-.27,1c-3,8.29-30.5,19.47-55.77,27.29-9.06,2.81-17.84,5.18-25.08,6.84-19.57,4.48-68.6,12.47-72.9-1-5-15.56.8-105.47-3.6-164.58-5.19-72.26,14.82-138,42.64-159.5,2.1-1.54,6.26,2.56,18.31,8.28,11.13,5.27,23.43,6.78,33.84,4.5l9.33,8c12.89,11.6,27.06,27.43,33.49,51.7,3.93,14.89,6.9,38.43,9.1,64.91.85,10.26,1.59,21,2.22,31.78,1,17.21,1.87,34.57,2.29,51.08,0,.32,0,.63,0,1v.6c.18,1.66.21,3.48.23,5.15.44,14.8.36,28.57.86,40.26,0,.33,0,.65.05,1,.63,9.8,4.22,14.22,5.18,18.31A7.71,7.71,0,0,1,1009.68,1376.82Z" transform="translate(-261.75 -214.59)"/><path class="cls-20" d="M1009.68,1376.82a7.76,7.76,0,0,1-.27,1c-3,8.29-30.5,19.47-55.77,27.29-51.33-64.31-45.83-141.26-45.83-141.26l95.47,43.3c0,.32,0,.63,0,1v.6c.18,1.66.21,3.48.23,5.15.44,14.8.36,28.57.86,40.26,0,.33,0,.65.05,1,.63,9.8,4.22,14.22,5.18,18.31A7.71,7.71,0,0,1,1009.68,1376.82Z" transform="translate(-261.75 -214.59)"/><path class="cls-23" d="M951.82,1069.38a200.06,200.06,0,0,1-3.47,23.7c-22.88-7.39-33.26-28.06-36.73-36.83.37-1.47.71-3,1-4.52l15.76-3.34Z" transform="translate(-261.75 -214.59)"/><path class="cls-15" d="M961.08,1069.15s-50.28,5.68-53.33-25.69-11.59-51.76,20.38-56.71,39.39,6.42,43,16.64S974.09,1066.87,961.08,1069.15Z" transform="translate(-261.75 -214.59)"/><path class="cls-21" d="M908,1045.62s3.19-41.63,49-45.95c31.35-2.95,13.87-29.93,10.53-34.24,0,0-24,3.3-48.64,7.37C867.14,981.33,902.89,1039.14,908,1045.62Z" transform="translate(-261.75 -214.59)"/><polygon class="cls-20" points="927.05 1018.01 891.63 1127.03 767.03 1124.37 766.87 1131.97 894 1134.69 931.45 1019.44 927.05 1018.01"/><path class="cls-15" d="M1042.44,1332s19.73,7.47,33.08,5,34.85,6.39,37.91,11.5,1.53,6.82-5,7.74-30.26,8.06-44.51.82-33.62-9.58-33.62-9.58Z" transform="translate(-261.75 -214.59)"/><path class="cls-22" d="M886.49,1136.15s4.83,164.69,41,183.4c17.84,9.24,98.42,34.62,122.61,39,0,0,6.51-4.18,7.24-24,0,0-82.8-41.26-93.15-59.86-15.4-27.67,22.95-103.51,2.73-130.14S909.27,1103.19,886.49,1136.15Z" transform="translate(-261.75 -214.59)"/><path class="cls-15" d="M3135.23,1263l6.05,9.82c3.15,3.61,4,5.63,6.48,6.86,6,3,17.13,10.56,18,26.52,0,0-.19,9-6.24,6.1s-3.42-2.65-12-6.6-11.8-16.48-12.55-20.76l-7-9.22Z" transform="translate(-261.75 -214.59)"/><path class="cls-15" d="M2957.18,1786.31a8.28,8.28,0,0,1-5.4,7.17l-.05,0c-5.75,2.52-15.4,2-25.82.54-1.34-.17-2.54-.32-3.61-.42l-.84-.07-.65,0c-10.38-.69-9.57,2.51-29.4,2.41-22.61-.12-30.25-7.73-31.29-11-.87-2.75,9-4.89,20.09-7.35l1.62-.36c1.47-.32,3-.67,4.43-1,13.19-3.1,26.26-7,30.58-19.68,4.58-13.45,3.49-53.34,3.49-53.34h40s-10.51,44.07-9.41,56.77c.6,6.79,3.84,8.71,5.1,14.59.09.41.17.82.24,1.24A39.27,39.27,0,0,1,2957.18,1786.31Z" transform="translate(-261.75 -214.59)"/><path class="cls-24" d="M3003.77,1355.13c-3.38,19-8.2,38.57-12.39,59-6.73,32.78-11.8,67.61-6.61,105.11a129.6,129.6,0,0,1,1.11,15.88c1,66.28-28.61,186.4-28.61,186.4s-8,3.47-21.52,2.8c-6.94-.34-17.59-4.82-17.59-4.82s-2.81-74.47-3-174.63c-.13-72.59-14.38-168.18-17.26-224.35-1.74-34,2-79.28,2-79.28s59-47.47,80.24-23.19C3001.16,1242,3016.41,1284.16,3003.77,1355.13Z" transform="translate(-261.75 -214.59)"/><path class="cls-25" d="M2984.77,1519.2a129.6,129.6,0,0,1,1.11,15.88c-44.21-64.06-54-203.74-54-203.74l48.56,23.57s5.33,26.19,10.93,59.18C2984.65,1446.87,2979.58,1481.7,2984.77,1519.2Z" transform="translate(-261.75 -214.59)"/><path class="cls-15" d="M3084.9,1786.31a8.26,8.26,0,0,1-5.4,7.17l0,0c-5.76,2.52-15.4,2-25.83.54-1.33-.17-2.53-.32-3.61-.42l-.84-.07-.64,0c-10.38-.69-9.57,2.51-29.4,2.41-22.61-.12-30.26-7.73-31.3-11-.87-2.75,9-4.89,20.1-7.35l1.61-.36c1.48-.32,3-.67,4.43-1,13.2-3.1,26.26-7,30.58-19.68,4.59-13.45-2-52.72-2-52.72l37.09-3.1s-2.3,44.75-1.2,57.45c.6,6.78,4,10.51,5.29,16.39.09.41.18.82.25,1.24A38.86,38.86,0,0,1,3084.9,1786.31Z" transform="translate(-261.75 -214.59)"/><path class="cls-24" d="M3079.68,1724.87s-9.54,4.51-16.41,5.88-21.12-1.3-21.12-1.3A968.19,968.19,0,0,0,3022,1604.61c-13.22-57.94-32.9-126.4-60.34-191.24-5.86-13.85-30-79.39-34.13-95.93-12.4-50,0-44.6,0-44.6L3036,1260.12s13.36,6.87,19.51,77.44c1.84,21.13,2.06,112.39,4.84,129.69,2.62,16.38,5.7,30,9.31,38.86C3089.74,1555.53,3079.68,1724.87,3079.68,1724.87Z" transform="translate(-261.75 -214.59)"/><path class="cls-26" d="M3084.9,1786.31a8.26,8.26,0,0,1-5.4,7.17l0,0c-6.08,2.17-15.58,1.7-25.8.48-1.34-.16-2.54-.28-3.64-.36l-.84-.07-.64,0c-10.38-.69-9.57,2.51-29.4,2.41-22.61-.12-30.26-7.73-31.3-11-.87-2.75,9-4.89,20.1-7.35a66.78,66.78,0,0,0,34.16,6.06c15.22-1.46,30.76-7.56,41.68-9.08.09.41.18.82.25,1.24A38.86,38.86,0,0,1,3084.9,1786.31Z" transform="translate(-261.75 -214.59)"/><path class="cls-26" d="M2957.18,1786.31a8.28,8.28,0,0,1-5.4,7.17l-.05,0c-6.08,2.17-15.58,1.7-25.8.48q-2-.24-3.63-.36l-.84-.07-.65,0c-10.38-.69-9.57,2.51-29.4,2.41-22.61-.12-30.25-7.73-31.29-11-.87-2.75,9-4.89,20.09-7.35a66.84,66.84,0,0,0,34.16,6.06c15.22-1.46,30.77-7.56,41.69-9.08.09.41.17.82.24,1.24A39.27,39.27,0,0,1,2957.18,1786.31Z" transform="translate(-261.75 -214.59)"/><path class="cls-17" d="M2913.82,935.55c-3.67-29.9,5.67-77.75,65.35-70.1s78.49,66.29,66.45,92.37,17.33,32.37,26.55,60.41c7.92,24.1,10.68,54,23.49,67.43,41.31,43.29-39.66,109.84-88.48,95.81-88.92-25.57-100.37-29.38-97.22-99.25,1.62-35.79,29.47-49.66,11.79-60C2879,997.18,2922.1,1003.21,2913.82,935.55Z" transform="translate(-261.75 -214.59)"/><path class="cls-15" d="M3001.54,1013.82l-16.45,42.48-35.48,1.73-17.7-26.43c11.17-8.5,15.89-21.25,17.62-32.65a93.18,93.18,0,0,0,.63-21.88c-.23-2.28-.47-3.61-.47-3.61L2993.91,960l.15-.08c.55,11.73,1.18,20.93,1.89,28.09C2998.47,1013.26,3001.54,1013.82,3001.54,1013.82Z" transform="translate(-261.75 -214.59)"/><path class="cls-15" d="M2931.76,1012.32c2.28,0,41-7.89,106.49,8.86,0,0-35.85,164.23-23.67,195.18a327.37,327.37,0,0,1,16.8,58.43l-132.1,1.63s1.85-106.24-4.24-143.84S2931.76,1012.32,2931.76,1012.32Z" transform="translate(-261.75 -214.59)"/><path class="cls-27" d="M3100.33,1184.18c-6.61-45.65-31.14-139.4-47.61-154.73-14.57-13.56-46-14.8-46-14.8h0c-6.52,10.22-28.87,35.62-56.59,31-15-2.46-18-29.37-18.34-33l.1-.41-.13,0v0l-.32.07c-4.37.64-39.13,6.3-49.45,24.05-15.23,26.21-31.81,104.87-48.11,103.7-7.48-.53-82.75-28.82-82.75-28.82s-12.54,11.74-10.14,26.16c0,0,37.16,24.89,68.59,40.77,4.36,2.2,8.61,4.22,12.63,6,11.33,5,20.87,7.85,26.09,6.62a17.59,17.59,0,0,0,4.73-2c6.81-3.94,14.77-12.58,22.4-22.44,5.07-6.56,10-13.65,14.35-20.25l.27-.41c1.86,25,3.73,52.21,1.8,73.53-1.48,16.23-2.55,51.36.23,60.44,5.81,18.92,48.45,23.92,88.25,22,18.77-.94,32-2,41.67-4.23,14-3.22,20.39-8.85,25-20,4.39-10.58-15.92-60.25-17.85-82-1.76-19.71,1.26-35.75,6.23-51.52,14,32.46,28.34,55.67,30.22,60.7,3.94,10.59,63.93,77.54,63.93,77.54a28.57,28.57,0,0,0,8.69-3.51,20.06,20.06,0,0,0,6-6C3133.59,1247.55,3100.33,1184.18,3100.33,1184.18Z" transform="translate(-261.75 -214.59)"/><path class="cls-12" d="M3047,1277.5c-4.61,11.11-11,16.74-25,20-18.71-3.6-31.05-38-37.4-55-7.32-19.52,30.82-119.91,41.34-119,7.83.67,9.18,14,9.44,20.49-5.06,15.92-8,31.61-6.23,51.52C3031.08,1217.25,3051.39,1266.92,3047,1277.5Z" transform="translate(-261.75 -214.59)"/><path class="cls-15" d="M2751.66,1119.21s-6.42-15.74-13.49-16.38-29.54-4.17-31.15-1,0,14.77,4.82,19,34.68,10.92,34.68,10.92Z" transform="translate(-261.75 -214.59)"/><path class="cls-12" d="M2889.78,1146.18c-4.35,6.6-9.28,13.69-14.35,20.25-7.27,9-15.3,17.61-22.4,22.44a17.59,17.59,0,0,1-4.73,2c-5.22,1.23-14.76-1.65-26.09-6.62a126.35,126.35,0,0,0,19.87-.3c11.4-1,14.72-13.32,32.75-31.83C2885.6,1141,2888.88,1142.75,2889.78,1146.18Z" transform="translate(-261.75 -214.59)"/><path class="cls-23" d="M2993.91,960c-6.69,10.94-22.82,33.44-44.38,39a93.18,93.18,0,0,0,.63-21.88c-.23-2.28-.47-3.61-.47-3.61Z" transform="translate(-261.75 -214.59)"/><path class="cls-15" d="M2938.08,976.46s53.16,10.68,59.3-22.53,17.13-54.19-16.55-62.41-42.63,3.23-47.38,13.81S2924.41,972.83,2938.08,976.46Z" transform="translate(-261.75 -214.59)"/><path class="cls-17" d="M2964.06,883.23s-.93,11.26,16.55,30.37,14.07,57.76,14.07,57.76,28.71-60,13-77.64S2964.06,883.23,2964.06,883.23Z" transform="translate(-261.75 -214.59)"/><path class="cls-17" d="M2985.43,868.57s-26.43-8.84-52.65,17c-11.3,11.14-9.59,33-3.54,45.72,0,0,9.3-27.21,26.21-33.15S2985.43,868.57,2985.43,868.57Z" transform="translate(-261.75 -214.59)"/><path class="cls-28" d="M2954.64,960.12s-1.42,3.94-11.43,2.15c0,0-8.4-1.5-7.63-5.92C2935.58,956.35,2944.16,954.13,2954.64,960.12Z" transform="translate(-261.75 -214.59)"/><path class="cls-8" d="M2133.09,972.83c14.42,81.76-33.31,148-106.59,148-4.77,0-9.66-3.3-14.4-3.85,65.25-7.86,106.22-67.75,92.75-144.18s-76.49-139.33-144.52-147.18a113.91,113.91,0,0,1,14-.84C2047.58,824.81,2118.68,891.08,2133.09,972.83Z" transform="translate(-261.75 -214.59)"/><path class="cls-8" d="M2191.69,1015.55c20.86,0,34.38-19.28,30.18-43.07s-24.51-43.08-45.37-43.08c-1.05,0-2.06.09-3.07.18a274.11,274.11,0,0,0-10.74-25.71c10.52-7.28,16-21.53,13.14-37.91-4.07-23.09-23.32-41.93-43.51-43l-24.57.31a32.8,32.8,0,0,0-3.62.2q-3.74-3.51-7.55-6.85c3.38-7.16,4.61-16,2.92-25.57C2095.3,767.23,2075,748,2054.12,748h-.49l-20.48.39c-.58,0-1.16-.05-1.74-.05-1,0-2.05.05-3.05.15h0a28.92,28.92,0,0,0-15.11,5.85,31.44,31.44,0,0,0-9.74,12.93l-1.48-.35c-.12-1.44-.31-2.91-.58-4.39-4.19-23.79-24.5-43.08-45.36-43.08l-22.42.37h-.29c-.36,0-.71,0-1.06,0h-.43a29.37,29.37,0,0,0-4.75.58h0c-1,.34-33.94,12.3-22.68,53.82l-2.3,1s-6.54-13.23-18.26-20.41c-14.5-8.87-24-6.78-25.21-6.62l-19.55.09v0c-20.38.52-33.47,19.59-29.33,43a55.8,55.8,0,0,0,14.82,28.81c-.68.91-1.35,1.84-2,2.77l-6.79.07c-1-.09-2-.14-3-.14a30.55,30.55,0,0,0-3.74.22l-17.28.18-.3,0-1.4,0c-.82,0-1.62,0-2.41.09h-.05c-.67,0-1.34.11-2,.2-18.29,2.54-29.61,20.72-25.72,42.78,3.25,18.46,16.23,34.17,31.62,40.3a214.43,214.43,0,0,0-1.37,23l-7.56.13c-.32,0-.65,0-1,0-.79,0-1.56,0-2.32.09l-1.44,0a.39.39,0,0,1,0,.1c-18.72,2.15-30.4,20.52-26.46,42.86,4.2,23.79,24.51,43.08,45.38,43.08l8.49-.13q3,8.33,6.5,16.41c-14.61,5.33-23,21.77-19.62,41.25,4,22.87,23,41.57,43,43h.06c.78,0,1.56.09,2.34.09,1,0,2-.06,3-.15l19.18-.2v0l.5,0a31.27,31.27,0,0,0,7.54-.91q4.67,4.71,9.51,9.18c-4.15,7.47-5.76,17.08-3.91,27.57,4.19,23.8,24.51,43.08,45.38,43.08l22.22-.35v0l.5,0c12.72,0,22.68-7.19,27.58-18.19,2.52.68,5,1.32,7.59,1.9.13,1.43.32,2.9.58,4.38,4.2,23.79,24.52,43.08,45.38,43.08l22.69-.36h.09l1.45,0v0c20-.91,32.75-19.83,28.66-43-.26-1.47-.58-2.93-1-4.37l2.18-.58c8.74,10.64,21,17.57,33.48,17.57l21.86-.39c.29,0,.57,0,.85,0,20.86,0,34.38-19.29,30.19-43.08a55.66,55.66,0,0,0-10.81-24.2q4.24-5.43,8-11.29h26.13c20.86,0,34.38-19.29,30.19-43.08-3.07-17.38-14.75-32.31-29-39.12q.84-9.14.9-18.58C2189.6,1015.47,2190.64,1015.55,2191.69,1015.55Zm-166.11,102.18c-73.49,0-144.63-65.58-158.89-146.49s33.73-146.51,107.22-146.51,144.63,65.6,158.9,146.51S2099.07,1117.73,2025.58,1117.73Z" transform="translate(-261.75 -214.59)"/><path class="cls-10" d="M2191.2,1015.56c20.86,0,34.38-19.29,30.18-43.08S2196.87,929.4,2176,929.4c-1.05,0-2.06.09-3.07.18a272.63,272.63,0,0,0-10.75-25.71c10.53-7.28,16-21.53,13.15-37.91-4.19-23.79-24.51-43.08-45.37-43.08a29.27,29.27,0,0,0-19.58,7.17q-6.93-7-14.3-13.46c3.38-7.16,4.6-16,2.91-25.57-4.19-23.79-24.5-43.08-45.37-43.08-15.33,0-26.67,10.44-29.94,25.41a191.45,191.45,0,0,0-22.15-6.47c-.13-1.45-.32-2.91-.58-4.39-4.2-23.79-24.51-43.07-45.37-43.07s-34.38,19.28-30.18,43.07c.26,1.48.58,2.94,1,4.39a140.47,140.47,0,0,0-24.23,8.35c-8.35-16-24-27.29-39.93-27.29-20.87,0-34.38,19.29-30.18,43.08a55.8,55.8,0,0,0,14.82,28.81q-4.65,6.2-8.74,12.94c-7.62-6.18-16.66-9.89-25.82-9.89-20.86,0-34.37,19.29-30.18,43.08,3.26,18.46,16.24,34.17,31.63,40.29a216,216,0,0,0-1.4,24.24,35.6,35.6,0,0,0-8.52-1.09c-20.86,0-34.37,19.29-30.18,43.08s24.51,43.08,45.37,43.08a31.13,31.13,0,0,0,8.14-1.09q3.13,8.84,6.85,17.37c-14.61,5.33-23,21.77-19.61,41.24,4.19,23.79,24.5,43.08,45.37,43.08a29.15,29.15,0,0,0,22.22-9.77q8.4,9.31,17.54,17.68c-4.15,7.48-5.76,17.09-3.9,27.58,4.19,23.79,24.5,43.08,45.37,43.08,15.3,0,26.61-10.4,29.92-25.31a193.35,193.35,0,0,0,28,8.67c.13,1.44.32,2.9.58,4.38,4.19,23.79,24.51,43.07,45.37,43.07s34.38-19.28,30.18-43.07c-.26-1.48-.58-2.94-1-4.38a142.24,142.24,0,0,0,20.65-6.8c8.71,13.91,23.07,23.44,37.72,23.44,20.87,0,34.38-19.29,30.18-43.08a55.53,55.53,0,0,0-10.8-24.2,155.45,155.45,0,0,0,12.31-18.29,40,40,0,0,0,21.83,7c20.87,0,34.38-19.29,30.18-43.08-3.06-17.38-14.74-32.32-28.94-39.13q.84-9.12.9-18.57C2189.11,1015.47,2190.15,1015.56,2191.2,1015.56Zm-165.62,102.18c-73.49,0-144.63-65.6-158.89-146.51s33.74-146.5,107.23-146.5,144.62,65.59,158.89,146.5S2099.07,1117.74,2025.58,1117.74Z" transform="translate(-261.75 -214.59)"/><path class="cls-4" d="M2380.13,978.7c11,62.51-25.47,113.17-81.49,113.17-3.65,0-7.39-2.52-11-2.94,49.89-6,81.21-51.8,70.91-110.23s-58.48-106.51-110.49-112.52a88.81,88.81,0,0,1,10.68-.64C2314.75,865.54,2369.11,916.21,2380.13,978.7Z" transform="translate(-261.75 -214.59)"/><path class="cls-4" d="M2424.92,1011.37c16,0,26.29-14.75,23.08-32.94s-18.74-32.93-34.69-32.93c-.8,0-1.57.07-2.34.14a206,206,0,0,0-8.22-19.65c8.05-5.57,12.26-16.47,10.05-29-3.11-17.65-17.83-32-33.26-32.89l-18.79.23a25.14,25.14,0,0,0-2.77.16c-1.9-1.79-3.81-3.54-5.77-5.24a32.43,32.43,0,0,0,2.24-19.55c-3.21-18.18-18.75-32.93-34.7-32.93h-.37l-15.65.3-1.34,0c-.79,0-1.56,0-2.33.1h0a22.14,22.14,0,0,0-11.55,4.48,23.9,23.9,0,0,0-7.44,9.89l-1.13-.28c-.1-1.1-.25-2.22-.45-3.35-3.2-18.19-18.73-32.93-34.68-32.93l-17.14.28h-.22l-.81,0h-.33a22.52,22.52,0,0,0-3.63.44h0c-.75.26-25.95,9.41-17.33,41.14l-1.77.78s-5-10.12-13.95-15.6c-11.09-6.79-18.31-5.19-19.28-5.06l-14.94.07v0c-15.57.39-25.58,15-22.42,32.91a42.68,42.68,0,0,0,11.33,22c-.52.7-1,1.41-1.54,2.12l-5.2.06c-.76-.07-1.54-.11-2.31-.11a24.25,24.25,0,0,0-2.85.16l-13.21.14H2119l-1.07,0c-.63,0-1.24,0-1.84.07h0c-.52,0-1,.09-1.53.16-14,1.94-22.64,15.84-19.67,32.7,2.49,14.11,12.42,26.12,24.18,30.81a163.66,163.66,0,0,0-1,17.62l-5.78.1-.75,0c-.6,0-1.19,0-1.77.07l-1.1,0a.73.73,0,0,1,0,.08c-14.31,1.64-23.24,15.68-20.22,32.77,3.2,18.18,18.73,32.93,34.69,32.93l6.48-.1c1.53,4.24,3.18,8.43,5,12.54-11.16,4.08-17.62,16.64-15,31.54,3.08,17.49,17.56,31.78,32.85,32.85h0c.6,0,1.19.07,1.79.07.79,0,1.57,0,2.33-.12l14.67-.15v0l.38,0a24.06,24.06,0,0,0,5.77-.69q3.55,3.6,7.26,7c-3.17,5.71-4.4,13.06-3,21.08,3.21,18.19,18.75,32.93,34.7,32.93l17-.26v0l.38,0c9.73,0,17.34-5.5,21.09-13.91,1.92.52,3.86,1,5.8,1.45.1,1.1.24,2.22.44,3.35,3.21,18.19,18.75,32.93,34.7,32.93l17.34-.27h1.18v0c15.28-.7,25-15.16,21.91-32.9-.2-1.13-.45-2.25-.74-3.35l1.66-.44c6.69,8.13,16.06,13.43,25.6,13.43l16.71-.29c.22,0,.43,0,.65,0,15.95,0,26.29-14.75,23.08-32.93a42.45,42.45,0,0,0-8.26-18.51q3.24-4.15,6.12-8.63h20c15.95,0,26.28-14.75,23.08-32.93-2.35-13.29-11.27-24.71-22.14-29.91q.64-7,.69-14.21C2423.33,1011.3,2424.13,1011.37,2424.92,1011.37Zm-127,78.11c-56.18,0-110.56-50.14-121.47-112s25.79-112,82-112,110.57,50.15,121.47,112S2354.12,1089.48,2297.93,1089.48Z" transform="translate(-261.75 -214.59)"/><path class="cls-6" d="M2424.55,1011.37c15.95,0,26.28-14.74,23.08-32.93s-18.74-32.93-34.69-32.93c-.8,0-1.58.06-2.35.13a205.48,205.48,0,0,0-8.21-19.65c8-5.57,12.26-16.46,10-29-3.21-18.19-18.74-32.93-34.69-32.93a22.37,22.37,0,0,0-15,5.48q-5.3-5.38-10.93-10.29a32.49,32.49,0,0,0,2.23-19.55c-3.21-18.19-18.74-32.93-34.69-32.93-11.72,0-20.38,8-22.89,19.42a148.71,148.71,0,0,0-16.94-5c-.09-1.1-.24-2.22-.44-3.35-3.2-18.19-18.73-32.93-34.68-32.93s-26.28,14.74-23.08,32.93c.2,1.13.45,2.25.74,3.35a108.89,108.89,0,0,0-18.53,6.39c-6.38-12.21-18.32-20.86-30.52-20.86-15.95,0-26.28,14.74-23.08,32.93a42.62,42.62,0,0,0,11.34,22,117.38,117.38,0,0,0-6.68,9.9c-5.83-4.72-12.74-7.56-19.74-7.56-16,0-26.28,14.74-23.07,32.93,2.48,14.12,12.4,26.12,24.17,30.81a165.09,165.09,0,0,0-1.06,18.53,27.23,27.23,0,0,0-6.52-.83c-16,0-26.28,14.74-23.07,32.93s18.74,32.93,34.68,32.93a23.73,23.73,0,0,0,6.23-.83q2.39,6.75,5.23,13.28c-11.17,4.07-17.62,16.64-15,31.53,3.2,18.18,18.73,32.93,34.68,32.93a22.27,22.27,0,0,0,17-7.47q6.43,7.13,13.41,13.52c-3.17,5.71-4.4,13.06-3,21.08,3.21,18.19,18.73,32.94,34.68,32.94,11.7,0,20.35-7.95,22.88-19.35a147.33,147.33,0,0,0,21.38,6.62c.1,1.1.25,2.22.45,3.35,3.2,18.19,18.73,32.93,34.68,32.93s26.28-14.74,23.08-32.93c-.2-1.13-.45-2.25-.74-3.35a108.76,108.76,0,0,0,15.78-5.19c6.66,10.63,17.64,17.92,28.84,17.92,15.95,0,26.28-14.75,23.07-32.94a42.57,42.57,0,0,0-8.25-18.5,118.91,118.91,0,0,0,9.4-14,30.61,30.61,0,0,0,16.7,5.35c15.95,0,26.28-14.75,23.07-32.93-2.34-13.29-11.27-24.71-22.13-29.92q.65-7,.69-14.2A23.94,23.94,0,0,0,2424.55,1011.37Zm-126.61,78.11c-56.19,0-110.57-50.14-121.48-112s25.8-112,82-112,110.57,50.15,121.47,112S2354.12,1089.48,2297.94,1089.48Z" transform="translate(-261.75 -214.59)"/><polygon class="cls-10" points="1081.38 812.1 1150.61 1070.46 1212.1 1070.46 1142.87 812.1 1081.38 812.1"/><polygon class="cls-10" points="1163.72 785.72 1240.02 1070.46 1301.51 1070.46 1225.21 785.72 1163.72 785.72"/><polygon class="cls-10" points="1240.02 740.29 1328.49 1070.46 1389.98 1070.46 1301.51 740.29 1240.02 740.29"/><polygon class="cls-10" points="1385.67 706.82 1324.18 706.82 1412.65 1037 1474.14 1037 1385.67 706.82"/><path class="cls-10" d="M1352.23,1001.44l65.9-50.65,5,18.59a11.49,11.49,0,0,0,6.42,7.24c3.12,1.38,6.33,1,8.27-.81l70.38-67.27,9.85,8.85c1.19,1.07,2.8.58,2.65-.8l-3.17-28.17a2.28,2.28,0,0,0-2.06-1.89l-29.23-.93c-1.43-.05-1.78,1.61-.58,2.68l8.79,7.91-59.54,56.9-4.56-17a11.46,11.46,0,0,0-6.09-7.08c-3-1.41-6.09-1.3-8.15.27l-76.19,58.56c-3.12,2.4-2.88,7.39.51,11.15a10.94,10.94,0,0,0,7.83,3.74A6.5,6.5,0,0,0,1352.23,1001.44Z" transform="translate(-261.75 -214.59)"/><path class="cls-29" d="M1333.13,1214.39l2.6,10.06A28,28,0,0,1,1333.13,1214.39Z" transform="translate(-261.75 -214.59)"/><path class="cls-29" d="M2640.5,1334.29H1364.44l-28.71-109.84c26.44,56.79,241.42-5.35,289.6-39.91,88.1-63.6,88.75-126.23,179.93-168.74,123.47-57.59,246.94,32.62,346.23,8,304.54-75.44,557-322.21,564.78-330-85.51,197.94-293.83,302.1-133.69,367C2748.71,1128.08,2640.5,1334.29,2640.5,1334.29Z" transform="translate(-261.75 -214.59)"/><path class="cls-10" d="M1360.35,775.65q-5.52-3.36-22.45-9.24a85.24,85.24,0,0,1-11.25-4.49,10.79,10.79,0,0,1-5.49-6.49q-1.56-5.11,1.14-7.93c1.81-1.87,4.41-2.81,7.83-2.81a30.64,30.64,0,0,1,9.61,2.19q6.1,2.19,8.36,2.19a5.73,5.73,0,0,0,4.64-1.8c1-1.2,1.19-2.84.56-4.91q-1.14-3.72-5.76-6.58-8.36-5.22-21-5.22-12.25,0-18.64,6.5-7,7-3.37,18.85,3.9,12.74,16.76,19.22l22.77,8.24q12.26,4.5,14.7,12.48,1.68,5.49-1.18,9.43a9.71,9.71,0,0,1-8.37,3.93,37.15,37.15,0,0,1-10.33-1.5c-.2-.08-2.52-.88-7-2.38-3.28-1.16-5.37-1.75-6.29-1.75a5.86,5.86,0,0,0-4.8,1.88c-1,1.25-1.22,3-.56,5.13q2,6.61,14,10.25a58,58,0,0,0,17.22,2.75q13.89,0,20.59-7.49,7.19-8,3-21.6A32.65,32.65,0,0,0,1360.35,775.65Z" transform="translate(-261.75 -214.59)"/><path class="cls-10" d="M1399.91,745.94h12.82q9.93,0,7.72-7.25t-12.39-7.37h-41q-10.12,0-7.87,7.37t12.22,7.25H1384l20.6,67.4q3.13,10.24,10.95,10.25,8.07,0,4.93-10.25Z" transform="translate(-261.75 -214.59)"/><path class="cls-10" d="M1510.83,811.84l-48.36-72.27q-6.24-9.37-14.62-9.38-8.13,0-8.78,10.13L1434.34,812a12.62,12.62,0,0,0,.63,4.5,9.51,9.51,0,0,0,3.78,5.19,10.39,10.39,0,0,0,6,1.94q5.25,0,5.62-6.61l.59-15h36.84l9.5,14.59q4.51,7,10.24,7a6.22,6.22,0,0,0,4.93-1.94q1.71-1.93.76-5.06A19.07,19.07,0,0,0,1510.83,811.84ZM1451.54,788l1.47-38.5a7,7,0,0,1,.21-1.25L1478.88,788Z" transform="translate(-261.75 -214.59)"/><path class="cls-10" d="M1576.56,808.46l-30.44-25.13q24.09-1.76,17-24.88a35.7,35.7,0,0,0-15.39-20.51,43.77,43.77,0,0,0-24-6.62h-17.87q-9.88,0-6.7,10.4l22,71.84q3.15,10.28,11,10.28,8.07,0,5-10.19l-9.16-29.95.82.63L1568.22,819q5.64,4.88,9.64,4.88a5.63,5.63,0,0,0,4.68-1.94c1-1.29,1.22-3,.58-5.06Q1581.91,812.83,1576.56,808.46Zm-41.45-35.13a53.19,53.19,0,0,1-10.66-.76l-8.22-26.88h11.69q14.82,0,18.93,13.44Q1551.19,773.34,1535.11,773.33Z" transform="translate(-261.75 -214.59)"/><path class="cls-10" d="M1601.46,745.94h12.82q9.93,0,7.71-7.25t-12.38-7.37h-41q-10.12,0-7.87,7.37t12.22,7.25h12.63l20.6,67.4q3.13,10.24,11,10.25,8.07,0,4.93-10.25Z" transform="translate(-261.75 -214.59)"/><path class="cls-10" d="M1698.19,812.68a12.09,12.09,0,0,0-4.44-6.11,11.23,11.23,0,0,0-6.9-2.57,6.07,6.07,0,0,0-5.33,2.57,6.75,6.75,0,0,0-.7,6.11,12.18,12.18,0,0,0,4.44,6.12,11.27,11.27,0,0,0,6.9,2.57,6.06,6.06,0,0,0,5.33-2.57A6.77,6.77,0,0,0,1698.19,812.68Z" transform="translate(-261.75 -214.59)"/><path class="cls-10" d="M1688.45,784.43l-14-45.62q-3-9.91-10.73-9.91t-4.55,9.91l13.94,45.62q3.15,10.27,10.85,10.27T1688.45,784.43Z" transform="translate(-261.75 -214.59)"/><path class="cls-10" d="M2459.11,1334.29H1839.66c26.45-21.74,62.63-59.38,81.77-113.41,32.45-91.18,143.26-53.54,241.1-69.28S2458.19,936.36,2465,959.34c3.62,12.31-40.56,174.42,24.34,192.75C2553.37,1170.1,2577.87,1271.34,2459.11,1334.29Z" transform="translate(-261.75 -214.59)"/><path class="cls-30" d="M3336.65,1799.37H264.49a2.75,2.75,0,0,1-2.74-2.74h0a2.75,2.75,0,0,1,2.74-2.74H3336.65a2.74,2.74,0,0,1,2.74,2.74h0A2.74,2.74,0,0,1,3336.65,1799.37Z" transform="translate(-261.75 -214.59)"/></svg>