<?xml version="1.0" encoding="utf-8"?>
<!-- Generator: Adobe Illustrator 24.2.3, SVG Export Plug-In . SVG Version: 6.00 Build 0)  -->
<svg version="1.1" xmlns="http://www.w3.org/2000/svg" xmlns:xlink="http://www.w3.org/1999/xlink" x="0px" y="0px"
	 viewBox="0 0 750 500" style="enable-background:new 0 0 750 500;" xml:space="preserve">
<style type="text/css">
	.st0{fill:#92E3A9;}
	.st1{opacity:0.7;fill:#FFFFFF;}
	.st2{opacity:0.15;}
	.st3{fill:#263238;stroke:#263238;stroke-miterlimit:10;}
	.st4{fill:#FFFFFF;stroke:#263238;stroke-miterlimit:10;}
	.st5{fill:none;stroke:#263238;stroke-width:4;stroke-miterlimit:10;}
	.st6{fill:#263238;}
	.st7{fill:none;stroke:#FFFFFF;stroke-width:4;stroke-miterlimit:10;}
	.st8{fill:#FFFFFF;}
	.st9{fill:none;stroke:#FFFFFF;stroke-miterlimit:10;}
	.st10{fill:none;stroke:#263238;stroke-miterlimit:10;}
	.st11{fill:#92E3A9;stroke:#263238;stroke-miterlimit:10;}
	.st12{fill:#B2B2B2;stroke:#263238;stroke-miterlimit:10;}
</style>
<g id="Background_Simple">
	<g>
		<path class="st0" d="M710.83,310.16c-9.15-43.26-27.67-85.6-49.95-123.66c-36.18-61.82-90.24-116.18-162.17-132.36
			C335.73,17.46,300.69,178,264.01,199.19c-36.67,21.19-127.95,9.78-177.66,77.42c-49.71,67.64-44.01,174.4-44.01,174.4
			s675.61,0,675.61,0C719.49,403.82,720.58,356.23,710.83,310.16z"/>
		<path class="st1" d="M710.83,310.16c-9.15-43.26-27.67-85.6-49.95-123.66c-36.18-61.82-90.24-116.18-162.17-132.36
			C335.73,17.46,300.69,178,264.01,199.19c-36.67,21.19-127.95,9.78-177.66,77.42c-49.71,67.64-44.01,174.4-44.01,174.4
			s675.61,0,675.61,0C719.49,403.82,720.58,356.23,710.83,310.16z"/>
	</g>
</g>
<g id="Plants">
	<g>
		<g class="st2">
			<g>
				<path d="M326.22,450.39c-0.06-0.33-6.05-33.14-8.53-78.36c-2.29-41.71-2.72-100.97,11.74-155.17l-1.41-2.4
					c-8.03,30.08-16.72,81.85-12.56,157.72c2.49,45.36,8.5,78.28,8.56,78.61L326.22,450.39z"/>
			</g>
			<g>
				<path d="M350.89,251.78c-16.77,6.17-26.81,12.08-32.14,15.81c0.63-6.61,5.06-22.28,30.71-40.62
					c40.64-29.06,119.54-4.27,137.94,2.12C447.04,230.79,393.28,236.2,350.89,251.78z"/>
				<path d="M351.57,253.11c43.49-15.95,99.02-21.17,139.56-22.67c0.11,0.04,0.18,0.07,0.18,0.07s-45.07,41.07-99.84,50.16
					c-54.77,9.08-72.73-9.71-72.73-9.71s-0.08-0.5-0.09-1.43C323.64,265.91,333.89,259.6,351.57,253.11z"/>
			</g>
			<g>
				<path d="M293.52,276.55c12.26,8.19,19.16,14.87,22.72,18.89c0.77-5.42,0.25-18.84-16.78-38.5
					c-26.98-31.15-95.03-26.51-111.03-24.94C220.47,241.14,262.54,255.86,293.52,276.55z"/>
				<path d="M292.71,277.48c-31.8-21.19-75.31-36.1-107.54-45.14c-0.09,0.01-0.16,0.02-0.16,0.02s28.21,41.64,70.38,59.5
					c42.17,17.86,60.2,6.26,60.2,6.26s0.16-0.38,0.35-1.13C312.64,293.13,305.64,286.1,292.71,277.48z"/>
			</g>
			<g>
				<path d="M341.21,376.36c-12.26,8.19-19.16,14.87-22.72,18.89c-0.77-5.42-0.25-18.84,16.78-38.5
					c26.98-31.15,95.03-26.51,111.03-24.94C414.27,340.95,372.2,355.67,341.21,376.36z"/>
				<path d="M342.02,377.29c31.8-21.19,75.31-36.1,107.54-45.14c0.09,0.01,0.16,0.02,0.16,0.02s-28.21,41.64-70.38,59.5
					s-60.2,6.26-60.2,6.26s-0.16-0.38-0.35-1.13C322.1,392.95,329.09,385.91,342.02,377.29z"/>
			</g>
			<g>
				<path d="M285.22,345.93c16.09,7.77,25.51,14.63,30.45,18.86c0.02-6.64-2.87-22.67-26.62-43.41
					c-37.62-32.87-118.56-15.88-137.49-11.31C191.56,315.67,244.54,326.29,285.22,345.93z"/>
				<path d="M284.4,347.18c-41.74-20.11-96.49-30.71-136.69-36.14c-0.11,0.03-0.18,0.05-0.18,0.05s40.86,45.26,94.49,59.63
					c53.63,14.37,73.33-2.59,73.33-2.59s0.13-0.49,0.23-1.42C310.96,362.63,301.38,355.36,284.4,347.18z"/>
			</g>
			<g>
				<path d="M338.85,181.3c-7.12,16.39-9.76,27.74-10.75,34.17c-4.35-5.02-12.63-19.04-8.19-50.26
					c7.03-49.46,79.43-89.44,96.76-98.34C390.03,97.23,356.84,139.87,338.85,181.3z"/>
				<path d="M340.29,181.72c18.48-42.48,53.03-86.26,79.93-116.63c0.1-0.05,0.17-0.08,0.17-0.08s-1.39,60.96-32.63,106.86
					c-31.24,45.9-57.23,45.92-57.23,45.92s-0.42-0.28-1.1-0.93C330.27,210.76,332.77,198.99,340.29,181.72z"/>
			</g>
		</g>
		<g class="st2">
			<g>
				<path d="M530.17,450.56c-0.04-0.19-3.61-19.78-5.09-46.76c-1.37-24.89-1.63-60.26,7.01-92.6l-0.84-1.43
					c-4.79,17.95-9.98,48.85-7.49,94.12c1.49,27.07,5.07,46.72,5.11,46.91L530.17,450.56z"/>
			</g>
			<g>
				<path d="M544.89,332.04c-10.01,3.68-16,7.21-19.18,9.44c0.37-3.94,3.02-13.3,18.33-24.24c24.25-17.34,71.33-2.55,82.32,1.27
					C602.27,319.51,570.19,322.74,544.89,332.04z"/>
				<path d="M545.3,332.83c25.95-9.52,59.09-12.63,83.28-13.53c0.06,0.02,0.11,0.04,0.11,0.04s-26.9,24.51-59.58,29.93
					c-32.69,5.42-43.4-5.8-43.4-5.8s-0.05-0.3-0.05-0.86C528.64,340.46,534.75,336.7,545.3,332.83z"/>
			</g>
			<g>
				<path d="M510.66,346.81c7.32,4.88,11.44,8.87,13.56,11.27c0.46-3.24,0.15-11.24-10.02-22.98
					c-16.1-18.59-56.71-15.82-66.25-14.88C467.07,325.68,492.17,334.47,510.66,346.81z"/>
				<path d="M510.18,347.37c-18.97-12.65-44.94-21.54-64.17-26.93c-0.06,0.01-0.09,0.01-0.09,0.01s16.83,24.85,42,35.51
					c25.16,10.66,35.92,3.73,35.92,3.73s0.1-0.23,0.21-0.68C522.07,356.71,517.9,352.51,510.18,347.37z"/>
			</g>
			<g>
				<path d="M539.12,406.38c-7.32,4.88-11.44,8.87-13.56,11.27c-0.46-3.24-0.15-11.24,10.02-22.98
					c16.1-18.59,56.71-15.82,66.25-14.88C582.72,385.25,557.61,394.03,539.12,406.38z"/>
				<path d="M539.6,406.93c18.97-12.65,44.94-21.54,64.17-26.93c0.06,0.01,0.09,0.01,0.09,0.01s-16.83,24.85-42,35.51
					c-25.16,10.66-35.92,3.73-35.92,3.73s-0.1-0.23-0.21-0.68C527.71,416.27,531.89,412.08,539.6,406.93z"/>
			</g>
			<g>
				<path d="M505.71,388.22c9.6,4.64,15.22,8.73,18.17,11.26c0.01-3.96-1.71-13.53-15.88-25.91c-22.45-19.62-70.75-9.47-82.05-6.75
					C449.82,370.16,481.43,376.5,505.71,388.22z"/>
				<path d="M505.22,388.97c-24.91-12-57.58-18.32-81.57-21.57c-0.07,0.02-0.11,0.03-0.11,0.03s24.38,27.01,56.39,35.59
					c32,8.57,43.76-1.55,43.76-1.55s0.08-0.29,0.14-0.85C521.07,398.19,515.35,393.85,505.22,388.97z"/>
			</g>
			<g>
				<path d="M537.71,289.98c-4.25,9.78-5.83,16.55-6.41,20.39c-2.6-2.99-7.54-11.36-4.89-29.99c4.2-29.52,47.4-53.37,57.74-58.68
					C568.26,239.81,548.45,265.25,537.71,289.98z"/>
				<path d="M538.57,290.23c11.03-25.35,31.65-51.47,47.7-69.6c0.06-0.03,0.1-0.05,0.1-0.05s-0.83,36.38-19.47,63.77
					c-18.64,27.39-34.15,27.4-34.15,27.4s-0.25-0.17-0.66-0.55C532.59,307.56,534.09,300.54,538.57,290.23z"/>
			</g>
		</g>
		<g class="st2">
			<g>
				<path d="M653.93,450.62c-0.03-0.15-2.73-14.96-3.85-35.38c-1.03-18.83-1.23-45.59,5.3-70.06l-0.64-1.08
					c-3.62,13.58-7.55,36.96-5.67,71.21c1.12,20.48,3.84,35.34,3.86,35.49L653.93,450.62z"/>
			</g>
			<g>
				<path d="M665.07,360.95c-7.57,2.78-12.1,5.45-14.51,7.14c0.28-2.98,2.28-10.06,13.87-18.34c18.35-13.12,53.97-1.93,62.28,0.96
					C708.48,351.46,684.21,353.91,665.07,360.95z"/>
				<path d="M665.38,361.55c19.64-7.2,44.7-9.56,63.01-10.24c0.05,0.02,0.08,0.03,0.08,0.03s-20.35,18.54-45.08,22.65
					c-24.73,4.1-32.84-4.39-32.84-4.39s-0.04-0.23-0.04-0.65C652.77,367.32,657.4,364.47,665.38,361.55z"/>
			</g>
			<g>
				<path d="M639.17,372.13c5.54,3.7,8.65,6.71,10.26,8.53c0.35-2.45,0.11-8.51-7.58-17.38c-12.18-14.06-42.91-11.97-50.13-11.26
					C606.19,356.14,625.18,362.79,639.17,372.13z"/>
				<path d="M638.81,372.55c-14.36-9.57-34-16.3-48.55-20.38c-0.04,0.01-0.07,0.01-0.07,0.01s12.74,18.8,31.77,26.87
					c19.04,8.06,27.18,2.83,27.18,2.83s0.07-0.17,0.16-0.51C647.8,379.61,644.65,376.44,638.81,372.55z"/>
			</g>
			<g>
				<path d="M660.7,417.19c-5.54,3.7-8.65,6.71-10.26,8.53c-0.35-2.45-0.11-8.51,7.58-17.38c12.18-14.06,42.91-11.97,50.13-11.26
					C693.69,401.2,674.69,407.85,660.7,417.19z"/>
				<path d="M661.07,417.61c14.36-9.57,34-16.3,48.55-20.38c0.04,0.01,0.07,0.01,0.07,0.01s-12.74,18.8-31.77,26.87
					c-19.04,8.06-27.18,2.83-27.18,2.83s-0.07-0.17-0.16-0.51C652.07,424.68,655.23,421.5,661.07,417.61z"/>
			</g>
			<g>
				<path d="M635.42,403.45c7.27,3.51,11.52,6.61,13.75,8.52c0.01-3-1.3-10.23-12.02-19.6c-16.99-14.84-53.53-7.17-62.08-5.11
					C593.14,389.79,617.06,394.58,635.42,403.45z"/>
				<path d="M635.05,404.02c-18.84-9.08-43.56-13.86-61.72-16.32c-0.05,0.01-0.08,0.02-0.08,0.02s18.45,20.44,42.66,26.92
					c24.21,6.49,33.11-1.17,33.11-1.17s0.06-0.22,0.1-0.64C647.04,410.99,642.72,407.71,635.05,404.02z"/>
			</g>
			<g>
				<path d="M659.64,329.12c-3.21,7.4-4.41,12.52-4.85,15.43c-1.96-2.26-5.7-8.6-3.7-22.69c3.18-22.33,35.86-40.38,43.68-44.4
					C682.75,291.17,667.76,310.42,659.64,329.12z"/>
				<path d="M660.29,329.31c8.34-19.18,23.94-38.94,36.09-52.66c0.05-0.02,0.08-0.04,0.08-0.04s-0.63,27.52-14.73,48.25
					c-14.1,20.72-25.65,20.47-25.65,20.47s-0.38,0.13-0.69-0.16C655.76,342.42,656.89,337.11,660.29,329.31z"/>
			</g>
		</g>
		<g class="st2">
			<g>
				<path d="M99.26,450.62c0.03-0.15,2.73-14.96,3.85-35.38c1.03-18.83,1.23-45.59-5.3-70.06l0.64-1.08
					c3.62,13.58,7.55,36.96,5.67,71.21c-1.12,20.48-3.84,35.34-3.86,35.49L99.26,450.62z"/>
			</g>
			<g>
				<path d="M88.12,360.95c7.57,2.78,12.1,5.45,14.51,7.14c-0.28-2.98-2.28-10.06-13.87-18.34c-18.35-13.12-53.97-1.93-62.28,0.96
					C44.7,351.46,68.98,353.91,88.12,360.95z"/>
				<path d="M87.81,361.55c-19.64-7.2-44.7-9.56-63.01-10.24c-0.05,0.02-0.08,0.03-0.08,0.03s20.35,18.54,45.08,22.65
					c24.73,4.1,32.84-4.39,32.84-4.39s0.04-0.23,0.04-0.65C100.42,367.32,95.79,364.47,87.81,361.55z"/>
			</g>
			<g>
				<path d="M114.02,372.13c-5.54,3.7-8.65,6.71-10.26,8.53c-0.35-2.45-0.11-8.51,7.58-17.38c12.18-14.06,42.91-11.97,50.13-11.26
					C147,356.14,128.01,362.79,114.02,372.13z"/>
				<path d="M114.38,372.55c14.36-9.57,34-16.3,48.55-20.38c0.04,0.01,0.07,0.01,0.07,0.01s-12.74,18.8-31.77,26.87
					c-19.04,8.06-27.18,2.83-27.18,2.83s-0.07-0.17-0.16-0.51C105.39,379.61,108.54,376.44,114.38,372.55z"/>
			</g>
			<g>
				<path d="M92.48,417.19c5.54,3.7,8.65,6.71,10.26,8.53c0.35-2.45,0.11-8.51-7.58-17.38c-12.18-14.06-42.91-11.97-50.13-11.26
					C59.5,401.2,78.5,407.85,92.48,417.19z"/>
				<path d="M92.12,417.61c-14.36-9.57-34-16.3-48.55-20.38c-0.04,0.01-0.07,0.01-0.07,0.01s12.74,18.8,31.77,26.87
					c19.04,8.06,27.18,2.83,27.18,2.83s0.07-0.17,0.16-0.51C101.12,424.68,97.96,421.5,92.12,417.61z"/>
			</g>
			<g>
				<path d="M117.77,403.45c-7.27,3.51-11.52,6.61-13.75,8.52c-0.01-3,1.3-10.23,12.02-19.6c16.99-14.84,53.53-7.17,62.08-5.11
					C160.05,389.79,136.13,394.58,117.77,403.45z"/>
				<path d="M118.13,404.02c18.84-9.08,43.56-13.86,61.72-16.32c0.05,0.01,0.08,0.02,0.08,0.02s-18.45,20.44-42.66,26.92
					c-24.21,6.49-33.11-1.17-33.11-1.17s-0.06-0.22-0.1-0.64C106.15,410.99,110.47,407.71,118.13,404.02z"/>
			</g>
			<g>
				<path d="M93.55,329.12c3.21,7.4,4.41,12.52,4.85,15.43c1.96-2.26,5.7-8.6,3.7-22.69c-3.18-22.33-35.86-40.38-43.68-44.4
					C70.44,291.17,85.43,310.42,93.55,329.12z"/>
				<path d="M92.9,329.31c-8.34-19.18-23.94-38.94-36.09-52.66c-0.05-0.02-0.08-0.04-0.08-0.04s0.63,27.52,14.73,48.25
					c14.1,20.72,25.84,20.73,25.84,20.73s0.19-0.13,0.5-0.42C97.43,342.42,96.3,337.11,92.9,329.31z"/>
			</g>
		</g>
	</g>
</g>
<g id="Bars">
	<g>
		<g>
			<rect x="546.75" y="150.68" class="st3" width="70.05" height="300.12"/>
			<rect x="568.13" y="150.68" class="st4" width="70.05" height="300.12"/>
		</g>
		<g>
			<rect x="388.95" y="254.65" class="st3" width="70.05" height="196.15"/>
			<rect x="410.33" y="254.65" class="st4" width="70.05" height="196.15"/>
		</g>
		<g>
			<rect x="225.25" y="313.64" class="st3" width="70.05" height="137.15"/>
			<rect x="246.63" y="313.64" class="st4" width="70.05" height="137.15"/>
		</g>
	</g>
</g>
<g id="Spikes">
	<g>
		<g>
			<g>
				<g>
					<line class="st5" x1="330.27" y1="450.8" x2="330.27" y2="350.3"/>
					<g>
						<path class="st6" d="M330.27,354.46l-8.36,5.08l-0.19-0.29l5.41-13.63c1.04-4.75,2.09-9.5,3.13-14.25
							c1.04,4.75,2.09,9.5,3.13,14.25l5.41,13.63l-0.14,0.29L330.27,354.46z"/>
					</g>
				</g>
			</g>
			<g>
				<g>
					<line class="st5" x1="352.87" y1="450.8" x2="352.87" y2="350.3"/>
					<g>
						<path class="st6" d="M352.87,354.46l-8.36,5.08l-0.19-0.29l5.41-13.63c1.04-4.75,2.09-9.5,3.13-14.25
							c1.04,4.75,2.09,9.5,3.13,14.25l5.41,13.63l-0.14,0.29L352.87,354.46z"/>
					</g>
				</g>
			</g>
			<g>
				<g>
					<line class="st5" x1="375.46" y1="450.8" x2="375.46" y2="350.3"/>
					<g>
						<path class="st6" d="M375.46,354.46l-8.36,5.08l-0.19-0.29l5.41-13.63c1.04-4.75,2.09-9.5,3.13-14.25
							c1.04,4.75,2.09,9.5,3.13,14.25l5.41,13.63l-0.14,0.29L375.46,354.46z"/>
					</g>
				</g>
			</g>
			<g>
				<g>
					<line class="st7" x1="398.06" y1="450.8" x2="398.06" y2="350.3"/>
					<g>
						<path class="st8" d="M398.06,354.46l-8.36,5.08l-0.19-0.29l5.41-13.63c1.04-4.75,2.09-9.5,3.13-14.25
							c1.04,4.75,2.09,9.5,3.13,14.25l5.41,13.63l-0.14,0.29L398.06,354.46z"/>
					</g>
				</g>
			</g>
		</g>
		<g>
			<g>
				<g>
					<line class="st5" x1="488.83" y1="450.8" x2="488.83" y2="299.29"/>
					<g>
						<path class="st6" d="M488.83,303.45l-8.36,5.08l-0.19-0.29l5.41-13.63c1.04-4.75,2.09-9.5,3.13-14.25
							c1.04,4.75,2.09,9.5,3.13,14.25l5.41,13.63l-0.14,0.29L488.83,303.45z"/>
					</g>
				</g>
			</g>
			<g>
				<g>
					<line class="st5" x1="511.43" y1="450.8" x2="511.43" y2="299.29"/>
					<g>
						<path class="st6" d="M511.43,303.45l-8.36,5.08l-0.19-0.29l5.41-13.63c1.04-4.75,2.09-9.5,3.13-14.25
							c1.04,4.75,2.09,9.5,3.13,14.25l5.41,13.63l-0.14,0.29L511.43,303.45z"/>
					</g>
				</g>
			</g>
			<g>
				<g>
					<line class="st5" x1="534.03" y1="450.8" x2="534.03" y2="299.29"/>
					<g>
						<path class="st6" d="M534.03,303.45l-8.36,5.08l-0.19-0.29l5.41-13.63c1.04-4.75,2.09-9.5,3.13-14.25
							c1.04,4.75,2.09,9.5,3.13,14.25l5.41,13.63l-0.14,0.29L534.03,303.45z"/>
					</g>
				</g>
			</g>
			<g>
				<g>
					<line class="st7" x1="556.62" y1="450.8" x2="556.62" y2="299.29"/>
					<g>
						<path class="st8" d="M556.62,303.45l-8.36,5.08l-0.19-0.29l5.41-13.63c1.04-4.75,2.09-9.5,3.13-14.25
							c1.04,4.75,2.09,9.5,3.13,14.25l5.41,13.63l-0.14,0.29L556.62,303.45z"/>
					</g>
				</g>
			</g>
		</g>
	</g>
</g>
<g id="Clouds">
	<path class="st4" d="M345.59,99.02c0,0-3.87-18.07-17.43-22.59c-13.55-4.52-16.78,4.52-20.65,9.68c-3.87,5.16-9.68-2.58-18.07,0
		c-8.39,2.58-5.16,9.68-10.33,12.26c-5.16,2.58-14.2-3.23-20.01,1.29c-5.81,4.52-7.1,8.39-7.1,8.39h122.63
		C374.63,108.06,355.27,89.99,345.59,99.02z"/>
	<path class="st4" d="M565.63,192.74c0,0-3.87-18.07-17.43-22.59c-13.55-4.52-16.78,4.52-20.65,9.68c-3.87,5.16-9.68-2.58-18.07,0
		c-8.39,2.58-5.16,9.68-10.33,12.26c-5.16,2.58-14.2-3.23-20.01,1.29c-5.81,4.52-7.1,8.39-7.1,8.39h122.63
		C594.67,201.78,575.31,183.71,565.63,192.74z"/>
	<path class="st4" d="M168.06,171.19c0,0-2.51-11.73-11.31-14.67c-8.8-2.93-10.9,2.93-13.41,6.29c-2.51,3.35-6.29-1.68-11.73,0
		c-5.45,1.68-3.35,6.29-6.71,7.96c-3.35,1.68-9.22-2.1-12.99,0.84c-3.77,2.93-4.61,5.45-4.61,5.45h79.62
		C186.92,177.06,174.35,165.33,168.06,171.19z"/>
</g>
<g id="Character">
	<g>
		<g>
			<g>
				<path class="st4" d="M114.47,405.39c0,0-4.46,1.36-7.37,0.97c-2.91-0.39-5.43-0.39-6.01,2.13c-0.58,2.52,0,5.04-0.58,6.59
					c-0.58,1.55-2.52,3.68-2.13,6.59c0.39,2.91,1.36,9.7,3.1,8.73c1.75-0.97,4.07-9.31,5.04-11.05c0.97-1.75,3.58-5.75,5.53-6.6
					c1.55-0.68,3.88-0.68,3.88-0.68L114.47,405.39z"/>
				<path class="st3" d="M102.63,420.03c0,0,1.36-3.3,2.04-8.05c0.36-2.5,1.06-4.41,1.74-5.7c-2.61-0.29-4.79-0.1-5.32,2.22
					c-0.58,2.52,0,5.04-0.58,6.59c-0.58,1.55-2.52,3.68-2.13,6.59c0.39,2.91,1.36,9.7,3.1,8.73c1.32-0.73,2.96-5.65,4.11-8.77
					L102.63,420.03z"/>
			</g>
			<path class="st3" d="M163.72,340.82c-0.19-15.51-5.82-19.78-5.82-19.78c-27.15,3.49-32.38-4.65-32.38-4.65l-3.3,2.52
				c-5.62,6.01-8.34,14.54-9.31,24.24c-0.97,9.7,10.86,42.08,10.86,42.08s-5.04,9.7-8.92,17.26c-3.88,7.56-1.94,24.43-3.3,28.89
				c-1.36,4.46-4.85,7.17-4.07,11.05c0.78,3.88,0.58,7.37,3.49,7.76c2.91,0.39,7.17,1.16,8.34,0c1.16-1.16-1.16-2.91-1.94-6.21
				c-0.78-3.3-1.36-8.34-1.36-8.34l15.12-29.09c0,0,29.86-15.32,30.64-16.87C162.56,388.13,163.92,356.33,163.72,340.82z
				 M142.2,384.84l-2.71-37.62l2.33-0.19l4.65,35.68L142.2,384.84z"/>
			<path class="st4" d="M112.48,413.65c-0.51,7.22-0.06,14.92-0.92,17.73c-1.36,4.46-4.85,7.17-4.07,11.05
				c0.78,3.88,0.58,7.37,3.49,7.76c2.91,0.39,7.17,1.16,8.34,0c1.16-1.16-1.16-2.91-1.94-6.21c-0.78-3.3-1.36-8.34-1.36-8.34
				l9.35-17.99C118.4,419.45,114.36,416.04,112.48,413.65z"/>
			<path class="st3" d="M119.32,450.18c1.16-1.16-1.16-2.91-1.94-6.21l-6.21,0.39c0,0-1.28-4.04-2.16-7.77
				c-1.09,1.91-1.96,3.69-1.53,5.83c0.78,3.88,0.58,7.37,3.49,7.76C113.89,450.57,118.15,451.35,119.32,450.18z"/>
			<line class="st9" x1="141.62" y1="386.78" x2="133.28" y2="403.45"/>
		</g>
		<g>
			<path class="st4" d="M167.6,299.52c0,0,0,4.07-1.94,6.59c-1.94,2.52-6.4,4.65-6.4,4.65l-1.36,10.28c0,0-3.1,2.29-10.47,2.71
				c-7.37,0.43-14.54-3.1-14.54-3.1l4.85-41.69c0,0,9.31-3.3,15.13-4.85c5.82-1.55,13.57,0.39,13.57,0.39S167.6,290.4,167.6,299.52z
				"/>
			<path class="st10" d="M166.44,274.5c0,0-7.76-1.94-13.57-0.39c-5.82,1.55-15.12,4.85-15.12,4.85l-0.79,6.79
				c4.03,2.66,10.35,5.46,18.82,5.04c4.41-0.22,8.23-1.66,11.44-3.62C166.87,280.46,166.44,274.5,166.44,274.5z"/>
		</g>
		<g>
			<path class="st11" d="M164.19,274.24c0,0,22.55-2.4,27.05-2.96c4.51-0.56,10.43-1.69,10.43-1.69l9.68,4.53
				c0,0,0.75,3.08-0.94,5.47c-1.69,2.4-38.33,13.39-38.33,13.39s-1.13,40.3-1.13,42.98c0,2.68,0.14,3.1-1.55,4.51
				c-1.69,1.41-10.99,5.5-10.99,5.5s4.65-18.04,5.92-26.07c1.27-8.03,2.11-34.66,1.55-39.31
				C165.32,275.93,164.19,274.24,164.19,274.24z"/>
			<polyline class="st10" points="173.63,278.61 172.08,292.98 177.57,279.31 			"/>
			<path class="st11" d="M165.88,280.58c0.56,4.65-0.28,31.28-1.55,39.31c-0.17,1.06-0.39,2.29-0.66,3.62l0.09,0.04
				c0,0,5.07-11.7,5.78-27.05c0.5-10.81-0.4-18.89-0.98-22.73c-2.62,0.28-4.37,0.47-4.37,0.47S165.32,275.93,165.88,280.58z"/>
		</g>
		<g>
			<path class="st4" d="M148.83,280.19l2.09-8.75c0,0-1.7-0.91-3.79-2.09c-2.09-1.18-6.4-5.75-4.31-13.71
				c2.09-7.97,7.18-9.14,7.18-9.14s7.18-3.53,13.97-1.31c6.79,2.22,7.58,6.14,7.84,7.18c0.26,1.04-0.78,3.4-0.26,3.79
				c0.52,0.39,5.62,2.48,5.22,3.66c-0.39,1.18-2.09,3.27-2.09,3.27s-0.52,7.84-1.57,8.88c-1.04,1.04-6.66,1.31-6.66,1.31l-4.7,9.8"
				/>
			<path class="st3" d="M161.24,246.88c2.14-0.64,4.09-0.66,5.61-0.48c-0.82-0.44-1.75-0.85-2.87-1.21
				c-6.79-2.22-13.97,1.31-13.97,1.31s-5.09,1.18-7.18,9.14c-2.09,7.97,2.22,12.54,4.31,13.71c1.24,0.7,2.33,1.3,3.02,1.67
				c0.94-2.02,2.18-4.83,3.12-7.42c0.69-1.92,3.24,0.53,4.31-1.57c0.24-0.47-0.16-3.22,0.07-3.67c1.24-2.5,2.22-4.75,2.02-6.12
				C159.28,249.5,156.41,248.32,161.24,246.88z"/>
			<path class="st4" d="M156.01,264.26c0,0-2.87-4.18-5.22-2.09c-2.35,2.09-0.26,6.66,4.18,6.14"/>
			<path class="st3" d="M145.3,249.89c0,0-4.18-4.31-7.31-5.09c-3.13-0.78-7.05-1.04-9.4,4.05c-2.35,5.09-1.57,9.14,1.44,11.23
				c3,2.09,5.62,2.35,8.1,0.78c2.48-1.57,4.05-3.92,4.7-5.22C143.48,254.33,145.3,249.89,145.3,249.89z"/>
			<path class="st6" d="M169.07,256.22c0,0.9-0.38,1.63-0.85,1.63c-0.47,0-0.85-0.73-0.85-1.63c0-0.9,0.38-1.63,0.85-1.63
				C168.69,254.59,169.07,255.32,169.07,256.22z"/>
			<path class="st10" d="M166.07,253.15c0,0,2.61-0.91,3.79,0"/>
			<path class="st10" d="M170.64,265.17c0,0,1.7-0.13,2.35,0.39"/>
			<polygon class="st3" points="166.46,273.27 161.89,272.35 164.37,277.19 			"/>
		</g>
		<g>
			<path class="st11" d="M150.4,274.12c0,0-25.74,7.72-26.33,9.11c-0.59,1.39-4.95,30.89-5.15,32.67
				c-0.2,1.78-6.93,11.29-5.94,14.45c0.99,3.17,8.32,11.88,12.47,14.45c4.16,2.57,6.93,3.76,6.93,3.76s6.73-20.99,10.69-34.25
				C147.03,301.05,150.4,274.12,150.4,274.12z"/>
			<path class="st11" d="M150.4,274.12c0,0-4,1.2-8.88,2.74c-0.47,8.35-1.78,32.01-1.61,37.85c0.08,3.01,0.13,6.47,0.16,9.48
				c1.07-3.46,2.11-6.87,3.01-9.87C147.03,301.05,150.4,274.12,150.4,274.12z"/>
		</g>
		<g>
			<path class="st4" d="M200.97,278.33c-3.38-4.79-4.07-14.82-6.76-19.3c-2.69-4.49-6.06-5.41-6.06-5.41l-1.41-0.38
				c0,0-1.67,0.38-2.95,0c-1.28-0.38-4.61-1.54-4.61-1.54s-2.44,0.38-3.33-0.26c-0.9-0.64,1.67-0.77,0.38-1.15
				c-1.28-0.38-6.41-0.64-7.44-1.67c-1.03-1.03,4.36-1.28,4.36-1.28s3.2-1.03,5.64-0.77c2.44,0.26,9.36,1.28,10.64,1.41
				c1.28,0.13,5.26,3.72,5.26,3.72s10.38,10.77,12.95,14.74c2.56,3.97,3.59,6.67,3.72,7.69c0.13,1.03,0.13,1.67,0.13,1.67"/>
			<path class="st11" d="M201.9,280.54c-1.96-0.73-4.65-7.34-5.88-10.53s-5.88-12-5.88-12l6.61-5.39l12.48,15.42
				c0,0,5.27,4.97,1.17,11.54"/>
			<path class="st10" d="M175.33,247.21c0,0-1.41,1.15,2.05,1.54c3.46,0.38,4.36,0.26,4.36,0.26s1.79,2.31,5.13,2.95"/>
		</g>
		<g>
			<g>
				<g>
					
						<rect x="94.83" y="353.99" transform="matrix(0.2467 -0.9691 0.9691 0.2467 -269.8712 362.8906)" class="st3" width="7.33" height="2.09"/>
				</g>
				<g>
					
						<rect x="84.54" y="349.04" transform="matrix(0.3118 -0.9501 0.9501 0.3118 -272.1205 324.4662)" class="st3" width="6.77" height="2.09"/>
				</g>
				<g>
					<path class="st3" d="M99.75,352.08c-0.19,0-0.39-0.04-0.57-0.12l-10.6-4.7c-0.72-0.32-1.04-1.16-0.72-1.87
						c0.32-0.72,1.16-1.04,1.87-0.72l10.6,4.7c0.72,0.32,1.04,1.16,0.72,1.87C100.81,351.77,100.29,352.08,99.75,352.08z"/>
				</g>
				<g>
					<polygon class="st12" points="76.83,345.62 108.43,361.49 104.26,398.81 99.23,399.68 64.87,380.95 					"/>
					<polygon class="st12" points="108.43,361.49 99.23,399.68 104.26,398.81 					"/>
					<path class="st10" d="M76.83,345.62c0,0,4.91,26.79,11.1,26.47c4.8-0.25,20.5-10.6,20.5-10.6"/>
					<polygon class="st4" points="85.15,368.35 83.44,374.33 86,375.93 88.03,369.74 					"/>
				</g>
			</g>
			<path class="st4" d="M100.31,342.81l-2.1,11.43c0,0-1.33,1.05-2.29,0.76c-0.95-0.29-1.33-1.91-1.33-1.91s-5.24-1.33-5.62-3.81
				c-0.38-2.48,4.5-9.63,4.5-9.63L100.31,342.81z"/>
			<path class="st11" d="M124.06,283.23l-21.98,26.73l-9.11,29.7l7.92,3.49l12.48-25.47l18.22-15.84c0,0,1.78-3.17,0.4-6.73"/>
		</g>
	</g>
</g>
<g id="Trophy">
	<g>
		<g>
			<rect x="587.51" y="99.85" class="st11" width="8.11" height="50.16"/>
			<g>
				<g>
					<path class="st11" d="M574.81,99.17c-9.84,0-17.57-3.05-22.97-9.07c-9.78-10.9-8.11-27.47-8.03-28.17l0,0
						c0.17-1.52,1.45-2.68,2.98-2.68h26.55v6h-20.56c-1.74,0-3.12,1.47-2.99,3.2c0.36,5.06,1.78,12.36,6.55,17.66
						c4.21,4.68,10.43,7.06,18.48,7.06V99.17z"/>
				</g>
				<g>
					<path class="st11" d="M608.33,99.17c9.84,0,17.57-3.05,22.97-9.07c9.78-10.9,8.11-27.47,8.03-28.17h0
						c-0.17-1.52-1.45-2.68-2.98-2.68H609.8v6h20.56c1.74,0,3.12,1.47,2.99,3.2c-0.36,5.06-1.78,12.36-6.55,17.66
						c-4.21,4.68-10.43,7.06-18.48,7.06V99.17z"/>
				</g>
				<path class="st11" d="M591.51,110.18h-0.21c-12.36,0-22.39-10.02-22.39-22.39V53.4h44.98v34.39
					C613.89,100.15,603.87,110.18,591.51,110.18z"/>
				<path class="st6" d="M609.54,53.4v33.3c0,11.55-9.33,20.99-21.09,21.64c0.43,0.02,0.86,0.04,1.29,0.04h0
					c12.36,0,22.39-9.7,22.39-21.68V53.4H609.54z"/>
				<path class="st8" d="M573.39,53.4v33.11c0,11.48,8.27,20.87,18.69,21.51c-0.38,0.02-0.76,0.04-1.15,0.04l0,0
					c-10.96,0-19.84-9.65-19.84-21.55V53.4H573.39z"/>
				<rect x="568.91" y="53.4" class="st11" width="44.98" height="9.85"/>
			</g>
			<path class="st11" d="M596.06,134.37h-8.67c-1.18,0-2.13-0.95-2.13-2.13v-9.05c0-1.18,0.95-2.13,2.13-2.13h8.67
				c1.18,0,2.13,0.95,2.13,2.13v9.05C598.19,133.42,597.23,134.37,596.06,134.37z"/>
			<path class="st11" d="M617.47,150.6c-1.11-3.03-4.02-5.2-7.44-5.2h-36.62c-3.42,0-6.33,2.17-7.44,5.2H617.47z"/>
			<path class="st11" d="M576.89,58.3c0-1.05-0.85-1.9-1.9-1.9s-1.9,0.85-1.9,1.9s0.85,1.9,1.9,1.9S576.89,59.35,576.89,58.3z"/>
			<path class="st11" d="M585.26,58.3c0-1.05-0.85-1.9-1.9-1.9s-1.9,0.85-1.9,1.9s0.85,1.9,1.9,1.9S585.26,59.35,585.26,58.3z"/>
			<path class="st11" d="M593.62,58.3c0-1.05-0.85-1.9-1.9-1.9s-1.9,0.85-1.9,1.9s0.85,1.9,1.9,1.9S593.62,59.35,593.62,58.3z"/>
			<path class="st11" d="M601.99,58.3c0-1.05-0.85-1.9-1.9-1.9s-1.9,0.85-1.9,1.9s0.85,1.9,1.9,1.9S601.99,59.35,601.99,58.3z"/>
			<path class="st11" d="M610.36,58.3c0-1.05-0.85-1.9-1.9-1.9s-1.9,0.85-1.9,1.9s0.85,1.9,1.9,1.9S610.36,59.35,610.36,58.3z"/>
			<g>
				<g>
					
						<ellipse transform="matrix(0.2484 -0.9686 0.9686 0.2484 364.093 635.0751)" class="st3" cx="591.31" cy="82.91" rx="14.49" ry="14.49"/>
					<path class="st8" d="M594.2,90.63h-2.95V79.52c-1.08,1.01-2.35,1.75-3.81,2.24v-2.68c0.77-0.25,1.61-0.73,2.51-1.43
						c0.9-0.7,1.52-1.52,1.86-2.46h2.39V90.63z"/>
				</g>
			</g>
		</g>
		<line class="st10" x1="591.98" y1="26.71" x2="591.98" y2="44.14"/>
		<line class="st10" x1="517.18" y1="79.72" x2="534.61" y2="79.72"/>
		<line class="st10" x1="555.53" y1="114.73" x2="558.2" y2="112.05"/>
		<line class="st10" x1="545.87" y1="124.38" x2="552.93" y2="117.32"/>
		<line class="st10" x1="637.98" y1="119.91" x2="630.12" y2="112.05"/>
		<line class="st10" x1="642.44" y1="124.38" x2="640.19" y2="122.13"/>
		<line class="st10" x1="555.91" y1="48.74" x2="558.2" y2="51.03"/>
		<line class="st10" x1="545.87" y1="38.7" x2="553.54" y2="46.37"/>
		<line class="st10" x1="642.44" y1="38.7" x2="630.12" y2="51.03"/>
		<line class="st10" x1="661.21" y1="79.72" x2="664.6" y2="79.72"/>
		<line class="st10" x1="647.17" y1="79.72" x2="657.82" y2="79.72"/>
	</g>
	<rect x="-55.37" y="99.17" class="st11" width="17.04" height="42"/>
</g>
<g id="Floor">
	<g>
		<line class="st4" x1="705.72" y1="450.8" x2="726.67" y2="450.8"/>
		<line class="st4" x1="86.35" y1="450.8" x2="697.57" y2="450.8"/>
		<line class="st4" x1="19.52" y1="450.8" x2="77.38" y2="450.8"/>
	</g>
</g>
</svg>
